<svg width="81" height="101" viewBox="0 0 81 101" fill="none" xmlns="http://www.w3.org/2000/svg">
<path d="M3.1 76V62H8.56C9.78667 62 10.8333 62.1933 11.7 62.58C12.5667 62.9667 13.2333 63.5267 13.7 64.26C14.1667 64.9933 14.4 65.8667 14.4 66.88C14.4 67.8933 14.1667 68.7667 13.7 69.5C13.2333 70.22 12.5667 70.78 11.7 71.18C10.8333 71.5667 9.78667 71.76 8.56 71.76H4.2L5.1 70.82V76H3.1ZM5.1 71.02L4.2 70.02H8.5C9.78 70.02 10.7467 69.7467 11.4 69.2C12.0667 68.6533 12.4 67.88 12.4 66.88C12.4 65.88 12.0667 65.1067 11.4 64.56C10.7467 64.0133 9.78 63.74 8.5 63.74H4.2L5.1 62.74V71.02ZM29.1773 76.16C27.3373 76.16 25.8907 75.6333 24.8373 74.58C23.784 73.5267 23.2573 71.9867 23.2573 69.96V62H25.2573V69.88C25.2573 71.44 25.5973 72.58 26.2773 73.3C26.9707 74.02 27.944 74.38 29.1973 74.38C30.464 74.38 31.4373 74.02 32.1173 73.3C32.8107 72.58 33.1573 71.44 33.1573 69.88V62H35.0973V69.96C35.0973 71.9867 34.5707 73.5267 33.5173 74.58C32.4773 75.6333 31.0307 76.16 29.1773 76.16ZM45.1977 76V62H50.6577C51.8843 62 52.931 62.1933 53.7977 62.58C54.6643 62.9667 55.331 63.5267 55.7977 64.26C56.2643 64.9933 56.4977 65.8667 56.4977 66.88C56.4977 67.8933 56.2643 68.7667 55.7977 69.5C55.331 70.22 54.6643 70.7733 53.7977 71.16C52.931 71.5467 51.8843 71.74 50.6577 71.74H46.2977L47.1977 70.82V76H45.1977ZM54.5577 76L50.9977 70.92H53.1377L56.7377 76H54.5577ZM47.1977 71.02L46.2977 70.04H50.5977C51.8777 70.04 52.8443 69.7667 53.4977 69.22C54.1643 68.66 54.4977 67.88 54.4977 66.88C54.4977 65.88 54.1643 65.1067 53.4977 64.56C52.8443 64.0133 51.8777 63.74 50.5977 63.74H46.2977L47.1977 62.74V71.02ZM67.5489 68.04H74.7489V69.74H67.5489V68.04ZM67.7289 74.26H75.8889V76H65.7289V62H75.6089V63.74H67.7289V74.26ZM6.48 100V94.64L6.94 95.88L0.92 86H3.06L8.12 94.34H6.96L12.04 86H14.02L8.02 95.88L8.46 94.64V100H6.48ZM27.7638 100.16C26.6971 100.16 25.7038 99.98 24.7838 99.62C23.8771 99.26 23.0904 98.76 22.4238 98.12C21.7571 97.4667 21.2371 96.7067 20.8638 95.84C20.4904 94.9733 20.3038 94.0267 20.3038 93C20.3038 91.9733 20.4904 91.0267 20.8638 90.16C21.2371 89.2933 21.7571 88.54 22.4238 87.9C23.0904 87.2467 23.8771 86.74 24.7838 86.38C25.6904 86.02 26.6838 85.84 27.7638 85.84C28.8304 85.84 29.8104 86.02 30.7038 86.38C31.6104 86.7267 32.3971 87.2267 33.0638 87.88C33.7438 88.52 34.2638 89.2733 34.6238 90.14C34.9971 91.0067 35.1838 91.96 35.1838 93C35.1838 94.04 34.9971 94.9933 34.6238 95.86C34.2638 96.7267 33.7438 97.4867 33.0638 98.14C32.3971 98.78 31.6104 99.28 30.7038 99.64C29.8104 99.9867 28.8304 100.16 27.7638 100.16ZM27.7638 98.38C28.5371 98.38 29.2504 98.2467 29.9037 97.98C30.5704 97.7133 31.1438 97.34 31.6238 96.86C32.1171 96.3667 32.4971 95.7933 32.7638 95.14C33.0438 94.4867 33.1838 93.7733 33.1838 93C33.1838 92.2267 33.0438 91.5133 32.7638 90.86C32.4971 90.2067 32.1171 89.64 31.6238 89.16C31.1438 88.6667 30.5704 88.2867 29.9037 88.02C29.2504 87.7533 28.5371 87.62 27.7638 87.62C26.9771 87.62 26.2504 87.7533 25.5838 88.02C24.9304 88.2867 24.3571 88.6667 23.8638 89.16C23.3704 89.64 22.9838 90.2067 22.7038 90.86C22.4371 91.5133 22.3038 92.2267 22.3038 93C22.3038 93.7733 22.4371 94.4867 22.7038 95.14C22.9838 95.7933 23.3704 96.3667 23.8638 96.86C24.3571 97.34 24.9304 97.7133 25.5838 97.98C26.2504 98.2467 26.9771 98.38 27.7638 98.38ZM50.5606 100.16C49.4806 100.16 48.4873 99.9867 47.5806 99.64C46.674 99.28 45.8873 98.78 45.2206 98.14C44.554 97.4867 44.034 96.7267 43.6606 95.86C43.2873 94.9933 43.1006 94.04 43.1006 93C43.1006 91.96 43.2873 91.0067 43.6606 90.14C44.034 89.2733 44.554 88.52 45.2206 87.88C45.9006 87.2267 46.694 86.7267 47.6006 86.38C48.5073 86.02 49.5073 85.84 50.6006 85.84C51.7073 85.84 52.7206 86.02 53.6406 86.38C54.5606 86.74 55.3406 87.28 55.9806 88L54.7406 89.24C54.1673 88.68 53.5406 88.2733 52.8606 88.02C52.194 87.7533 51.4673 87.62 50.6806 87.62C49.8806 87.62 49.134 87.7533 48.4406 88.02C47.7606 88.2867 47.1673 88.66 46.6606 89.14C46.1673 89.62 45.7806 90.1933 45.5006 90.86C45.234 91.5133 45.1006 92.2267 45.1006 93C45.1006 93.76 45.234 94.4733 45.5006 95.14C45.7806 95.7933 46.1673 96.3667 46.6606 96.86C47.1673 97.34 47.7606 97.7133 48.4406 97.98C49.1206 98.2467 49.8606 98.38 50.6606 98.38C51.4073 98.38 52.1206 98.2667 52.8006 98.04C53.494 97.8 54.134 97.4067 54.7206 96.86L55.8606 98.38C55.1673 98.9667 54.354 99.4133 53.4206 99.72C52.5006 100.013 51.5473 100.16 50.5606 100.16ZM53.9406 98.12V92.92H55.8606V98.38L53.9406 98.12ZM63.5698 100L69.9098 86H71.8898L78.2498 100H76.1498L70.4898 87.12H71.2898L65.6298 100H63.5698ZM66.2698 96.5L66.8098 94.9H74.6898L75.2698 96.5H66.2698Z" fill="url(#paint0_linear_54_6)"/>
<g clip-path="url(#clip0_54_6)">
<path d="M16.0667 26.72L17.9538 26.24C18.8564 32.08 20.8256 36.8 23.8615 40.32C26.8974 43.92 30.3436 45.68 34.282 45.68C36.3333 45.68 38.1384 44.96 39.5333 43.52C40.9282 42.08 41.6667 40.32 41.6667 38.16C41.6667 34.32 40.1077 30.8 36.9077 27.68C35.2667 29.92 33.2974 31.52 31 32.56L28.7025 27.2C33.7897 25.76 36.4154 23.36 36.4154 20.08C36.4154 18.8 36.0051 17.84 35.2667 17.2C34.5282 16.56 33.2974 16.24 31.7384 16.24C29.441 16.24 26.9795 16.88 24.4359 18.24L22.2205 12.88C24.3538 11.92 26.5692 11.36 28.7846 11.36C31.8205 11.36 34.2 12.32 36.0872 14.24C37.9743 16.16 38.8769 18.64 38.8769 21.68C38.8769 22.96 38.6308 24.16 38.0564 25.2L39.041 26.16C41.9949 23.44 44.7846 22.08 47.4102 22.08C47.6564 22.08 47.9846 22.08 48.3949 22.16C49.4615 16.88 52.1692 14.24 56.6 14.24C59.4718 14.24 61.6872 15.36 63.082 17.68C64.559 20 65.2154 23.44 65.2154 28C65.2154 32.64 64.3128 36.4 62.5077 39.12C60.7025 41.84 58.241 43.2 55.2051 43.2C53.0718 43.2 51.759 42.56 50.8564 41.2C49.9538 39.84 49.7077 37.6 49.7077 34.48V32.08C49.7077 29.12 48.7231 27.68 47.082 27.68C45.6872 27.68 43.9641 28.4 41.9128 29.76C44.7846 33.52 46.0974 37.04 46.0974 40.48C46.0974 43.28 45.1128 45.6 43.2256 47.36C41.3384 49.12 38.7949 50 35.6769 50C30.5897 50 26.241 47.76 22.4667 43.36C18.8564 38.96 16.641 33.44 16.0667 26.72ZM32.4769 6.4L34.1179 5.2C36.1692 7.84 38.6308 9.12 41.5025 9.12C44.2102 9.12 46.5077 7.84 48.4769 5.2L53.0718 8.88C50.1179 11.92 47.1641 13.44 44.1282 13.44C39.4513 13.52 35.5949 11.12 32.4769 6.4ZM42.159 0L45.6051 3.44L42.159 6.72L38.7128 3.2L42.159 0ZM50.1179 22.72C51.2667 23.28 52.0872 24.72 52.0872 26.88L52.2513 30.64V32.64C52.2513 36.48 53.3179 38.4 55.7795 38.4C57.9128 38.4 59.5538 37.44 60.9487 35.52C62.3436 33.6 63 31.2 63 28.4C63 25.6 62.3436 23.36 61.1128 21.6C59.882 19.84 58.159 18.96 56.1897 18.96C53.3179 19.12 51.2667 20.32 50.1179 22.72Z" fill="#9A8736"/>
<path d="M39.4513 43.6C38.0564 45.04 36.3333 45.68 34.282 45.68C30.3436 45.68 26.8974 43.92 23.8615 40.32C20.8256 36.72 18.8564 32 17.9538 26.24L16.0667 26.72C16.641 33.44 18.8564 38.96 22.5487 43.44C25.2564 46.72 28.3743 48.72 31.8205 49.6C34.6102 48.24 37.1538 46.16 39.4513 43.6Z" fill="#AD9637"/>
<path d="M47.4102 22.0801C44.7846 22.0801 41.9128 23.4401 39.041 26.1601L38.0564 25.2001C38.5487 24.1601 38.8769 23.0401 38.8769 21.6801C38.8769 18.6401 37.9743 16.1601 36.0871 14.2401C34.1999 12.3201 31.8205 11.3601 28.7846 11.3601C26.4871 11.3601 24.3538 11.8401 22.2205 12.8801L24.4358 18.2401C26.9794 16.8801 29.441 16.2401 31.7384 16.2401C33.2974 16.2401 34.4461 16.5601 35.2666 17.2001C36.0051 17.8401 36.4153 18.8001 36.4153 20.0801C36.4153 23.3601 33.8717 25.7601 28.7025 27.2001L30.9999 32.5601C33.2974 31.5201 35.2666 29.9201 36.9076 27.6801C40.1076 30.8001 41.6666 34.3201 41.6666 38.1601C41.6666 39.7601 41.2564 41.1201 40.5179 42.3201C42.241 40.1601 43.7179 37.5201 44.9487 34.8001C44.2102 33.1201 43.3076 31.6001 41.9948 29.8401C44.0461 28.4801 45.9333 27.7601 47.3282 27.7601C47.4102 27.7601 47.2461 27.7601 47.3282 27.7601C47.8205 25.9201 48.1487 24.0801 48.3948 22.1601C47.9025 22.0801 47.5743 22.0801 47.4102 22.0801Z" fill="#AD9637"/>
<path d="M34.1178 5.19995L32.4768 6.39995C35.5948 11.12 39.5332 13.52 44.046 13.52C45.523 13.52 46.9999 13.12 48.4768 12.4C48.3127 10.32 47.9845 8.23995 47.5742 6.23995C45.7691 8.15995 43.7999 9.11995 41.5024 9.11995C38.6307 9.11995 36.1691 7.75995 34.1178 5.19995Z" fill="#AD9637"/>
<path d="M45.6873 3.36L42.159 0L38.7129 3.2L42.159 6.72L45.6873 3.36Z" fill="#AD9637"/>
<path d="M41.2565 0.879883L38.7129 3.19988L42.159 6.71988C42.077 4.63988 41.7488 2.71988 41.2565 0.879883Z" fill="#B8A141"/>
<path d="M41.5024 9.11995C38.6307 9.11995 36.1691 7.83995 34.1178 5.19995L32.4768 6.39995C35.1024 10.4 38.3024 12.72 41.9948 13.28C42.1589 11.92 42.323 10.48 42.323 9.03995C41.9948 9.11995 41.7486 9.11995 41.5024 9.11995Z" fill="#B8A141"/>
<path d="M17.9538 26.1599L16.0667 26.7199C16.4769 30.8799 17.3795 34.6399 19.0205 37.9199C19.9231 37.7599 20.8256 37.5999 21.7282 37.3599C19.841 34.2399 18.6102 30.5599 17.9538 26.1599Z" fill="#B8A141"/>
<path d="M38.7948 21.7599C38.7948 18.7199 37.8923 16.2399 36.0051 14.3199C34.1179 12.3999 31.7384 11.4399 28.7025 11.4399C26.4051 11.4399 24.2718 11.9199 22.1384 12.9599L24.3538 18.3199C26.8974 16.9599 29.3589 16.3199 31.6564 16.3199C33.2154 16.3199 34.3641 16.6399 35.1846 17.2799C35.923 17.9199 36.3333 18.8799 36.3333 20.1599C36.3333 23.4399 33.7897 25.8399 28.6205 27.2799L30.9179 32.6399C31 32.5599 31.1641 32.5599 31.2461 32.4799C34.2 30.0799 30.6718 26.4799 38.5487 23.6799C38.7128 23.0399 38.7948 22.3999 38.7948 21.7599Z" fill="#B8A141"/>
</g>
<defs>
<linearGradient id="paint0_linear_54_6" x1="41" y1="57" x2="41" y2="100" gradientUnits="userSpaceOnUse">
<stop stop-color="#B8A141"/>
<stop offset="1" stop-color="#9A8736"/>
</linearGradient>
<clipPath id="clip0_54_6">
<rect width="51.2821" height="50" fill="white" transform="translate(15)"/>
</clipPath>
</defs>
</svg>
