<svg width="100" height="100" viewBox="0 0 100 100" fill="none" xmlns="http://www.w3.org/2000/svg">
<circle cx="50" cy="50" r="50" fill="#D09961"/>
<path d="M27.525 46V44.695L31.695 40.735C32.045 40.405 32.305 40.115 32.475 39.865C32.645 39.615 32.755 39.385 32.805 39.175C32.865 38.955 32.895 38.75 32.895 38.56C32.895 38.08 32.73 37.71 32.4 37.45C32.07 37.18 31.585 37.045 30.945 37.045C30.435 37.045 29.97 37.135 29.55 37.315C29.14 37.495 28.785 37.77 28.485 38.14L27.12 37.09C27.53 36.54 28.08 36.115 28.77 35.815C29.47 35.505 30.25 35.35 31.11 35.35C31.87 35.35 32.53 35.475 33.09 35.725C33.66 35.965 34.095 36.31 34.395 36.76C34.705 37.21 34.86 37.745 34.86 38.365C34.86 38.705 34.815 39.045 34.725 39.385C34.635 39.715 34.465 40.065 34.215 40.435C33.965 40.805 33.6 41.22 33.12 41.68L29.535 45.085L29.13 44.35H35.265V46H27.525ZM40.7705 46.15C39.9405 46.15 39.1905 45.94 38.5205 45.52C37.8605 45.1 37.3405 44.49 36.9605 43.69C36.5805 42.88 36.3905 41.9 36.3905 40.75C36.3905 39.6 36.5805 38.625 36.9605 37.825C37.3405 37.015 37.8605 36.4 38.5205 35.98C39.1905 35.56 39.9405 35.35 40.7705 35.35C41.6105 35.35 42.3605 35.56 43.0205 35.98C43.6805 36.4 44.2005 37.015 44.5805 37.825C44.9705 38.625 45.1655 39.6 45.1655 40.75C45.1655 41.9 44.9705 42.88 44.5805 43.69C44.2005 44.49 43.6805 45.1 43.0205 45.52C42.3605 45.94 41.6105 46.15 40.7705 46.15ZM40.7705 44.455C41.2605 44.455 41.6855 44.325 42.0455 44.065C42.4055 43.795 42.6855 43.385 42.8855 42.835C43.0955 42.285 43.2005 41.59 43.2005 40.75C43.2005 39.9 43.0955 39.205 42.8855 38.665C42.6855 38.115 42.4055 37.71 42.0455 37.45C41.6855 37.18 41.2605 37.045 40.7705 37.045C40.3005 37.045 39.8805 37.18 39.5105 37.45C39.1505 37.71 38.8655 38.115 38.6555 38.665C38.4555 39.205 38.3555 39.9 38.3555 40.75C38.3555 41.59 38.4555 42.285 38.6555 42.835C38.8655 43.385 39.1505 43.795 39.5105 44.065C39.8805 44.325 40.3005 44.455 40.7705 44.455ZM46.7215 42.61V41.05H50.8465V42.61H46.7215ZM51.9732 46V44.695L56.1432 40.735C56.4932 40.405 56.7532 40.115 56.9232 39.865C57.0932 39.615 57.2032 39.385 57.2532 39.175C57.3132 38.955 57.3432 38.75 57.3432 38.56C57.3432 38.08 57.1782 37.71 56.8482 37.45C56.5182 37.18 56.0332 37.045 55.3932 37.045C54.8832 37.045 54.4182 37.135 53.9982 37.315C53.5882 37.495 53.2332 37.77 52.9332 38.14L51.5682 37.09C51.9782 36.54 52.5282 36.115 53.2182 35.815C53.9182 35.505 54.6982 35.35 55.5582 35.35C56.3182 35.35 56.9782 35.475 57.5382 35.725C58.1082 35.965 58.5432 36.31 58.8432 36.76C59.1532 37.21 59.3082 37.745 59.3082 38.365C59.3082 38.705 59.2632 39.045 59.1732 39.385C59.0832 39.715 58.9132 40.065 58.6632 40.435C58.4132 40.805 58.0482 41.22 57.5682 41.68L53.9832 45.085L53.5782 44.35H59.7132V46H51.9732ZM64.3187 46.15C63.5787 46.15 62.8537 46.045 62.1437 45.835C61.4437 45.615 60.8537 45.315 60.3737 44.935L61.1987 43.42C61.5787 43.73 62.0387 43.98 62.5787 44.17C63.1287 44.36 63.6987 44.455 64.2887 44.455C64.9787 44.455 65.5187 44.31 65.9087 44.02C66.3087 43.73 66.5087 43.34 66.5087 42.85C66.5087 42.52 66.4237 42.23 66.2537 41.98C66.0937 41.73 65.8037 41.54 65.3837 41.41C64.9737 41.28 64.4087 41.215 63.6887 41.215H61.1537L61.6937 35.5H67.8587V37.135H62.4137L63.4337 36.205L63.0287 40.48L62.0087 39.565H64.1237C65.1637 39.565 65.9987 39.705 66.6287 39.985C67.2687 40.255 67.7337 40.635 68.0237 41.125C68.3237 41.605 68.4737 42.155 68.4737 42.775C68.4737 43.385 68.3237 43.945 68.0237 44.455C67.7237 44.965 67.2637 45.375 66.6437 45.685C66.0337 45.995 65.2587 46.15 64.3187 46.15ZM27.075 64L31.905 53.5H32.67L37.5 64H36.675L32.115 53.98H32.445L27.9 64H27.075ZM28.845 61.045L29.1 60.4H35.385L35.64 61.045H28.845ZM39.4062 64V53.5H43.1712C44.0512 53.5 44.8062 53.64 45.4362 53.92C46.0662 54.2 46.5512 54.605 46.8912 55.135C47.2312 55.655 47.4012 56.29 47.4012 57.04C47.4012 57.77 47.2312 58.4 46.8912 58.93C46.5512 59.46 46.0662 59.865 45.4362 60.145C44.8062 60.425 44.0512 60.565 43.1712 60.565H39.8262L40.1712 60.205V64H39.4062ZM40.1712 60.25L39.8262 59.875H43.1712C44.3012 59.875 45.1562 59.63 45.7362 59.14C46.3262 58.64 46.6212 57.94 46.6212 57.04C46.6212 56.13 46.3262 55.43 45.7362 54.94C45.1562 54.44 44.3012 54.19 43.1712 54.19H39.8262L40.1712 53.815V60.25ZM49.9823 64V53.5H53.7473C54.6273 53.5 55.3823 53.64 56.0123 53.92C56.6423 54.2 57.1273 54.605 57.4673 55.135C57.8073 55.655 57.9773 56.29 57.9773 57.04C57.9773 57.77 57.8073 58.4 57.4673 58.93C57.1273 59.45 56.6423 59.855 56.0123 60.145C55.3823 60.425 54.6273 60.565 53.7473 60.565H50.4023L50.7473 60.205V64H49.9823ZM57.2723 64L54.5423 60.19H55.4123L58.1423 64H57.2723ZM50.7473 60.25L50.4023 59.89H53.7473C54.8773 59.89 55.7323 59.64 56.3123 59.14C56.9023 58.64 57.1973 57.94 57.1973 57.04C57.1973 56.13 56.9023 55.43 56.3123 54.94C55.7323 54.44 54.8773 54.19 53.7473 54.19H50.4023L50.7473 53.815V60.25ZM60.7782 64V53.5H61.5432V64H60.7782ZM65.2021 64V53.5H65.9671V63.31H72.0121V64H65.2021Z" fill="white"/>
</svg>
