<svg width="100" height="100" viewBox="0 0 100 100" fill="none" xmlns="http://www.w3.org/2000/svg">
<circle cx="50" cy="50" r="50" fill="#C8B384"/>
<path d="M32.34 46V36.25L33.195 37.135H30.12V35.5H34.29V46H32.34ZM36.2379 46V44.695L40.4079 40.735C40.7579 40.405 41.0179 40.115 41.1879 39.865C41.3579 39.615 41.4679 39.385 41.5179 39.175C41.5779 38.955 41.6079 38.75 41.6079 38.56C41.6079 38.08 41.4429 37.71 41.1129 37.45C40.7829 37.18 40.2979 37.045 39.6579 37.045C39.1479 37.045 38.6829 37.135 38.2629 37.315C37.8529 37.495 37.4979 37.77 37.1979 38.14L35.8329 37.09C36.2429 36.54 36.7929 36.115 37.4829 35.815C38.1829 35.505 38.9629 35.35 39.8229 35.35C40.5829 35.35 41.2429 35.475 41.8029 35.725C42.3729 35.965 42.8079 36.31 43.1079 36.76C43.4179 37.21 43.5729 37.745 43.5729 38.365C43.5729 38.705 43.5279 39.045 43.4379 39.385C43.3479 39.715 43.1779 40.065 42.9279 40.435C42.6779 40.805 42.3129 41.22 41.8329 41.68L38.2479 45.085L37.8429 44.35H43.9779V46H36.2379ZM45.1951 42.61V41.05H49.3201V42.61H45.1951ZM50.4469 46V44.695L54.6169 40.735C54.9669 40.405 55.2269 40.115 55.3969 39.865C55.5669 39.615 55.6769 39.385 55.7269 39.175C55.7869 38.955 55.8169 38.75 55.8169 38.56C55.8169 38.08 55.6519 37.71 55.3219 37.45C54.9919 37.18 54.5069 37.045 53.8669 37.045C53.3569 37.045 52.8919 37.135 52.4719 37.315C52.0619 37.495 51.7069 37.77 51.4069 38.14L50.0419 37.09C50.4519 36.54 51.0019 36.115 51.6919 35.815C52.3919 35.505 53.1719 35.35 54.0319 35.35C54.7919 35.35 55.4519 35.475 56.0119 35.725C56.5819 35.965 57.0169 36.31 57.3169 36.76C57.6269 37.21 57.7819 37.745 57.7819 38.365C57.7819 38.705 57.7369 39.045 57.6469 39.385C57.5569 39.715 57.3869 40.065 57.1369 40.435C56.8869 40.805 56.5219 41.22 56.0419 41.68L52.4569 45.085L52.0519 44.35H58.1869V46H50.4469ZM58.9426 43.615V42.265L64.1176 35.5H66.2026L61.1026 42.265L60.1276 41.965H68.4526V43.615H58.9426ZM64.7026 46V43.615L64.7626 41.965V39.85H66.5926V46H64.7026ZM32.775 64.075C32.205 64.075 31.67 63.945 31.17 63.685C30.68 63.415 30.285 63.045 29.985 62.575L30.45 62.065C30.74 62.495 31.08 62.825 31.47 63.055C31.87 63.275 32.305 63.385 32.775 63.385C34.165 63.385 34.86 62.56 34.86 60.91V54.19H30.99V53.5H35.625V60.91C35.625 61.96 35.385 62.75 34.905 63.28C34.425 63.81 33.715 64.075 32.775 64.075ZM43.3082 64.075C42.0082 64.075 40.9832 63.695 40.2332 62.935C39.4832 62.175 39.1082 61.045 39.1082 59.545V53.5H39.8732V59.515C39.8732 60.825 40.1732 61.795 40.7732 62.425C41.3732 63.055 42.2232 63.37 43.3232 63.37C44.4132 63.37 45.2582 63.055 45.8582 62.425C46.4582 61.795 46.7582 60.825 46.7582 59.515V53.5H47.5232V59.545C47.5232 61.045 47.1482 62.175 46.3982 62.935C45.6482 63.695 44.6182 64.075 43.3082 64.075ZM51.0927 64V53.5H51.8577V63.31H57.9027V64H51.0927ZM60.5421 58.33H66.2271V59.005H60.5421V58.33ZM60.6321 63.31H67.1121V64H59.8671V53.5H66.8871V54.19H60.6321V63.31Z" fill="white"/>
</svg>
