<svg width="100" height="100" viewBox="0 0 100 100" fill="none" xmlns="http://www.w3.org/2000/svg">
<circle cx="50" cy="50" r="50" fill="#5DB8BD"/>
<path d="M33.34 46V36.25L34.195 37.135H31.12V35.5H35.29V46H33.34ZM41.7529 46.15C40.9229 46.15 40.1729 45.94 39.5029 45.52C38.8429 45.1 38.3229 44.49 37.9429 43.69C37.5629 42.88 37.3729 41.9 37.3729 40.75C37.3729 39.6 37.5629 38.625 37.9429 37.825C38.3229 37.015 38.8429 36.4 39.5029 35.98C40.1729 35.56 40.9229 35.35 41.7529 35.35C42.5929 35.35 43.3429 35.56 44.0029 35.98C44.6629 36.4 45.1829 37.015 45.5629 37.825C45.9529 38.625 46.1479 39.6 46.1479 40.75C46.1479 41.9 45.9529 42.88 45.5629 43.69C45.1829 44.49 44.6629 45.1 44.0029 45.52C43.3429 45.94 42.5929 46.15 41.7529 46.15ZM41.7529 44.455C42.2429 44.455 42.6679 44.325 43.0279 44.065C43.3879 43.795 43.6679 43.385 43.8679 42.835C44.0779 42.285 44.1829 41.59 44.1829 40.75C44.1829 39.9 44.0779 39.205 43.8679 38.665C43.6679 38.115 43.3879 37.71 43.0279 37.45C42.6679 37.18 42.2429 37.045 41.7529 37.045C41.2829 37.045 40.8629 37.18 40.4929 37.45C40.1329 37.71 39.8479 38.115 39.6379 38.665C39.4379 39.205 39.3379 39.9 39.3379 40.75C39.3379 41.59 39.4379 42.285 39.6379 42.835C39.8479 43.385 40.1329 43.795 40.4929 44.065C40.8629 44.325 41.2829 44.455 41.7529 44.455ZM47.7039 42.61V41.05H51.8289V42.61H47.7039ZM54.6974 46V36.25L55.5524 37.135H52.4774V35.5H56.6474V46H54.6974ZM62.2703 35.35C63.2303 35.35 64.0453 35.555 64.7153 35.965C65.3953 36.365 65.9153 36.95 66.2753 37.72C66.6353 38.49 66.8153 39.44 66.8153 40.57C66.8153 41.77 66.5953 42.785 66.1553 43.615C65.7253 44.445 65.1253 45.075 64.3553 45.505C63.5853 45.935 62.6903 46.15 61.6703 46.15C61.1403 46.15 60.6353 46.095 60.1553 45.985C59.6753 45.875 59.2603 45.705 58.9103 45.475L59.6303 44.005C59.9203 44.195 60.2353 44.33 60.5753 44.41C60.9153 44.48 61.2653 44.515 61.6253 44.515C62.6153 44.515 63.4003 44.21 63.9803 43.6C64.5603 42.99 64.8503 42.09 64.8503 40.9C64.8503 40.71 64.8453 40.49 64.8353 40.24C64.8253 39.98 64.7903 39.72 64.7303 39.46L65.3303 40.12C65.1603 40.53 64.9153 40.875 64.5953 41.155C64.2753 41.425 63.9003 41.63 63.4703 41.77C63.0403 41.91 62.5653 41.98 62.0453 41.98C61.3653 41.98 60.7503 41.85 60.2003 41.59C59.6603 41.32 59.2303 40.945 58.9103 40.465C58.5903 39.975 58.4303 39.405 58.4303 38.755C58.4303 38.055 58.6003 37.455 58.9403 36.955C59.2803 36.445 59.7403 36.05 60.3203 35.77C60.9103 35.49 61.5603 35.35 62.2703 35.35ZM62.3753 36.88C61.9753 36.88 61.6203 36.955 61.3103 37.105C61.0003 37.245 60.7553 37.45 60.5753 37.72C60.4053 37.98 60.3203 38.295 60.3203 38.665C60.3203 39.215 60.5103 39.65 60.8903 39.97C61.2703 40.29 61.7803 40.45 62.4203 40.45C62.8403 40.45 63.2103 40.375 63.5303 40.225C63.8503 40.065 64.1003 39.85 64.2803 39.58C64.4603 39.3 64.5503 38.99 64.5503 38.65C64.5503 38.32 64.4653 38.025 64.2953 37.765C64.1253 37.495 63.8803 37.28 63.5603 37.12C63.2403 36.96 62.8453 36.88 62.3753 36.88ZM32.71 64V53.5H33.625L38.425 61.69H37.945L42.7 53.5H43.615V64H42.55V55.165H42.805L38.425 62.665H37.9L33.49 55.165H33.775V64H32.71ZM45.3562 64L50.1562 53.5H51.2512L56.0512 64H54.8812L50.4712 54.145H50.9212L46.5112 64H45.3562ZM47.2462 61.195L47.5762 60.295H53.6812L54.0112 61.195H47.2462ZM59.6779 64V60.1L59.9329 60.79L55.4779 53.5H56.6629L60.5779 59.905H59.9479L63.8629 53.5H64.9729L60.5179 60.79L60.7729 60.1V64H59.6779Z" fill="white"/>
</svg>
