<?xml version="1.0" standalone="no"?>
<!DOCTYPE svg PUBLIC "-//W3C//DTD SVG 20010904//EN"
 "http://www.w3.org/TR/2001/REC-SVG-20010904/DTD/svg10.dtd">
<svg version="1.0" xmlns="http://www.w3.org/2000/svg"
 width="700.000000pt" height="700.000000pt" viewBox="0 0 700.000000 700.000000"
 preserveAspectRatio="xMidYMid meet">
<metadata>
Created by potrace 1.14, written by Peter Selinger 2001-2017
</metadata>
<g transform="translate(0.000000,700.000000) scale(0.100000,-0.100000)"
fill="#000000" stroke="none">
<path d="M3635 6934 c-217 -205 -395 -377 -395 -383 0 -6 88 -100 382 -405
l86 -91 159 157 c87 86 195 192 240 236 l83 79 -153 150 c-221 219 -328 323
-330 323 -1 0 -33 -30 -72 -66z"/>
<path d="M2493 6187 l-110 -83 64 -94 c400 -585 929 -902 1507 -901 61 0 120
2 131 4 11 3 43 8 70 11 249 36 560 196 824 426 100 87 211 196 211 207 -1 5
-24 27 -53 50 -29 23 -167 137 -307 252 l-255 211 -30 -36 c-36 -44 -210 -220
-246 -250 -161 -132 -337 -216 -511 -244 -120 -19 -340 -8 -460 23 -240 63
-497 236 -668 451 -25 31 -47 56 -51 56 -3 0 -55 -37 -116 -83z"/>
<path d="M1630 5395 c-120 -17 -191 -32 -295 -61 -109 -31 -329 -120 -346
-141 -10 -12 3 -53 71 -221 46 -114 89 -220 96 -237 7 -16 36 -88 65 -160 28
-71 53 -131 54 -133 2 -2 60 24 129 57 69 34 132 61 139 61 7 0 17 4 23 9 11
10 172 65 252 85 207 53 411 72 578 54 343 -36 507 -202 513 -518 8 -417 -271
-724 -849 -933 -69 -25 -139 -49 -155 -53 -52 -13 -53 -5 24 -192 17 -40 37
-88 44 -105 8 -18 24 -57 37 -87 13 -30 29 -68 36 -85 7 -16 33 -79 57 -140
25 -60 52 -122 60 -137 l14 -27 39 21 c224 119 378 231 539 392 73 74 202 225
225 265 8 13 19 5 70 -49 328 -349 536 -779 577 -1191 11 -111 7 -356 -6 -424
-40 -198 -135 -389 -258 -521 -164 -174 -345 -270 -583 -308 -46 -8 -263 -8
-320 -1 -208 27 -370 74 -538 156 -98 47 -284 166 -347 221 -158 137 -211 189
-310 304 -103 119 -106 122 -178 223 -314 437 -542 1012 -652 1641 -15 85 -28
160 -30 167 -3 9 -19 7 -62 -7 -32 -10 -91 -28 -131 -40 -65 -19 -72 -23 -68
-43 3 -12 8 -51 11 -87 37 -405 143 -854 292 -1230 225 -568 564 -1055 983
-1410 76 -64 350 -254 368 -255 4 -1 23 -9 42 -20 138 -75 403 -177 460 -177
8 0 47 -6 85 -14 212 -44 565 -53 750 -20 357 65 594 198 825 462 37 42 113
160 148 229 33 66 88 216 95 261 3 16 10 51 16 78 28 121 31 375 7 546 -19
129 -54 273 -97 396 -17 49 -34 103 -38 119 -23 89 -174 367 -312 573 -49 73
-89 134 -89 136 0 4 83 56 167 104 185 107 364 170 531 187 168 16 288 -125
337 -395 3 -19 8 -170 10 -335 4 -342 13 -627 20 -658 2 -12 7 -42 9 -67 42
-391 214 -623 508 -687 94 -20 289 -24 398 -7 474 71 828 423 1031 1021 34
100 78 278 93 373 3 19 8 46 10 59 3 12 8 44 11 70 10 85 16 136 20 166 24
176 24 605 0 905 -6 79 -29 248 -40 300 -3 14 -8 41 -11 60 -23 139 -96 366
-160 492 -198 395 -492 585 -918 592 -147 3 -282 -15 -396 -54 -258 -87 -446
-260 -584 -536 -58 -118 -130 -324 -152 -439 -2 -11 -6 -31 -9 -45 l-5 -25
-123 2 c-286 5 -583 -109 -892 -342 -82 -62 -109 -85 -201 -168 -29 -27 -56
-48 -61 -48 -4 0 -36 28 -70 62 l-62 61 15 37 c67 154 92 285 92 471 0 162
-11 261 -43 395 -65 274 -183 485 -376 670 -207 198 -377 282 -714 351 -61 12
-410 12 -495 -1z m4115 -1060 c152 -19 304 -96 425 -215 191 -189 311 -454
365 -805 14 -90 14 -470 0 -571 -27 -201 -71 -354 -147 -514 -161 -338 -406
-550 -688 -596 -14 -2 -55 -6 -92 -7 -206 -11 -345 67 -427 238 -70 144 -93
304 -96 670 -1 143 -5 323 -9 400 -3 77 -9 196 -11 265 -10 243 -34 344 -111
465 -38 60 -65 90 -121 130 l-41 31 46 77 c148 243 349 376 647 427 102 17
158 18 260 5z"/>
</g>
</svg>
