<svg width="400" height="801" viewBox="0 0 400 801" fill="none" xmlns="http://www.w3.org/2000/svg">
<path d="M200.107 220.174C160.699 220.174 124.602 240.025 103.547 273.278C87.2343 299.04 81.9304 329.614 88.6129 359.371C95.2954 389.116 113.163 414.489 138.927 430.806C157.238 442.393 178.321 448.525 199.891 448.525C239.301 448.525 275.398 428.678 296.453 395.427C312.766 369.662 318.07 339.086 311.388 309.332C304.705 279.58 286.836 254.211 261.071 237.899C242.76 226.303 221.679 220.174 200.107 220.174ZM199.891 449.749C178.088 449.749 156.779 443.557 138.27 431.84C112.23 415.344 94.1699 389.711 87.415 359.632C80.66 329.563 86.0221 298.661 102.51 272.621C123.791 239.012 160.276 218.946 200.107 218.946C221.91 218.946 243.22 225.143 261.728 236.862C287.769 253.35 305.829 278.991 312.584 309.064C319.338 339.138 313.978 370.043 297.49 396.08C276.208 429.689 239.722 449.749 199.891 449.749Z" fill="#B8A141"/>
<path d="M98.6124 161.935L98.6112 161.933L97.5547 162.559L140.309 235.175C140.76 234.903 141.215 234.637 141.669 234.371L98.6124 161.935Z" fill="#B8A141"/>
<path d="M112.454 154.519L112.453 154.517L111.35 155.057L148.258 230.801C148.735 230.562 149.211 230.321 149.691 230.089L112.454 154.519Z" fill="#B8A141"/>
<path d="M85.3715 170.441L85.3643 170.434L84.3613 171.14L132.716 240.171C133.142 239.864 133.575 239.565 134.007 239.265L85.3715 170.441Z" fill="#B8A141"/>
<path d="M72.8027 179.977L71.8579 180.76L125.534 245.753C125.933 245.418 126.333 245.083 126.735 244.752L72.8027 179.977Z" fill="#B8A141"/>
<path d="M187.803 134.722V134.718L186.578 134.798L191.82 218.902C192.357 218.864 192.893 218.83 193.432 218.8L187.803 134.722Z" fill="#B8A141"/>
<path d="M126.83 148.211L125.689 148.664L156.543 227.055C157.039 226.854 157.537 226.652 158.039 226.457L126.83 148.211Z" fill="#B8A141"/>
<path d="M156.774 139.082L155.576 139.349L173.848 221.577C174.37 221.456 174.899 221.347 175.426 221.234L156.774 139.082Z" fill="#B8A141"/>
<path d="M172.203 136.294L172.201 136.292L170.987 136.468L182.784 219.886C183.313 219.807 183.845 219.735 184.377 219.663L172.203 136.294Z" fill="#B8A141"/>
<path d="M141.644 143.054L140.471 143.416L165.099 223.97C165.609 223.81 166.123 223.655 166.637 223.501L141.644 143.054Z" fill="#B8A141"/>
<path d="M50.1847 201.833L49.375 202.755L112.582 258.495C112.93 258.093 113.287 257.699 113.64 257.303L50.1847 201.833Z" fill="#B8A141"/>
<path d="M6.36935 284.185L6.0625 285.373L87.6581 306.43C87.7841 305.922 87.9101 305.414 88.0432 304.909L6.36935 284.185Z" fill="#B8A141"/>
<path d="M203.442 134.377L202.216 134.351L200.891 218.621C201.419 218.625 201.949 218.63 202.476 218.642L203.442 134.377Z" fill="#B8A141"/>
<path d="M3.0212 299.59L3.018 299.589L2.80859 300.799L85.8223 315.344C85.9079 314.827 85.9887 314.307 86.0814 313.791L3.0212 299.59Z" fill="#B8A141"/>
<path d="M399.983 337.834L400 336.606L315.729 335.254C315.724 335.785 315.72 336.317 315.709 336.849L399.983 337.834Z" fill="#B8A141"/>
<path d="M0.896948 315.201L0.783691 316.422L84.6913 324.378C84.7364 323.85 84.7792 323.325 84.8315 322.799L0.896948 315.201Z" fill="#B8A141"/>
<path d="M16.6441 254.44L16.1562 255.565L93.3989 289.2C93.6045 288.715 93.8185 288.236 94.0312 287.754L16.6441 254.44Z" fill="#B8A141"/>
<path d="M40.2506 214.027L40.2427 214.021L39.5078 215.004L106.883 265.607C107.201 265.178 107.525 264.751 107.849 264.323L40.2506 214.027Z" fill="#B8A141"/>
<path d="M31.3561 226.841L30.6992 227.878L101.767 273.13C102.06 272.661 102.353 272.191 102.653 271.726L31.3561 226.841Z" fill="#B8A141"/>
<path d="M23.4848 240.317L23.4824 240.316L22.9082 241.401L97.2704 281.001C97.5188 280.52 97.7707 280.041 98.0274 279.564L23.4848 240.317Z" fill="#B8A141"/>
<path d="M0.0161608 330.868L0 332.094L84.2709 333.445C84.2744 332.913 84.2792 332.383 84.2911 331.852L0.0161608 330.868Z" fill="#B8A141"/>
<path d="M354.374 207.155L354.375 207.152L353.592 206.208L288.594 259.88C288.932 260.282 289.271 260.686 289.605 261.094L354.374 207.155Z" fill="#B8A141"/>
<path d="M379.836 246.804L379.296 245.702L303.551 282.609C303.788 283.084 304.029 283.557 304.26 284.035L379.836 246.804Z" fill="#B8A141"/>
<path d="M372.414 232.953L371.789 231.897L299.17 274.651C299.444 275.103 299.71 275.558 299.977 276.015L372.414 232.953Z" fill="#B8A141"/>
<path d="M363.914 219.714L363.916 219.713L363.209 218.711L294.184 267.072C294.488 267.494 294.785 267.924 295.082 268.352L363.914 219.714Z" fill="#B8A141"/>
<path d="M386.146 261.2H386.148L385.696 260.06L307.299 290.898C307.501 291.398 307.703 291.897 307.899 292.401L386.146 261.2Z" fill="#B8A141"/>
<path d="M399.632 322.156H399.634L399.555 320.93L315.449 326.17C315.487 326.704 315.521 327.238 315.551 327.773L399.632 322.156Z" fill="#B8A141"/>
<path d="M391.297 276.001L391.3 276L390.938 274.827L310.383 299.454C310.543 299.963 310.697 300.474 310.851 300.985L391.297 276.001Z" fill="#B8A141"/>
<path d="M398.054 306.538H398.057L397.883 305.323L314.463 317.125C314.541 317.655 314.614 318.187 314.685 318.719L398.054 306.538Z" fill="#B8A141"/>
<path d="M395.27 291.116L395.002 289.92L312.771 308.19C312.893 308.714 313.003 309.242 313.116 309.771L395.27 291.116Z" fill="#B8A141"/>
<path d="M279.928 151.003L278.801 150.516L245.168 227.757C245.653 227.963 246.132 228.177 246.613 228.388L279.928 151.003Z" fill="#B8A141"/>
<path d="M219.192 135.254L217.971 135.141L209.998 219.046C210.52 219.09 211.045 219.133 211.565 219.184L219.192 135.254Z" fill="#B8A141"/>
<path d="M265.234 145.277L265.238 145.269L264.077 144.871L236.639 224.535C237.141 224.703 237.641 224.876 238.14 225.051L265.234 145.277Z" fill="#B8A141"/>
<path d="M250.16 140.721L250.161 140.717L248.972 140.413L227.924 222.01C228.428 222.135 228.93 222.26 229.431 222.39L250.16 140.721Z" fill="#B8A141"/>
<path d="M234.753 137.367L233.543 137.16L218.992 220.17C219.516 220.257 220.04 220.339 220.562 220.432L234.753 137.367Z" fill="#B8A141"/>
<path d="M332.495 184.519L332.496 184.517L331.574 183.706L275.838 246.919C276.24 247.266 276.633 247.623 277.03 247.976L332.495 184.519Z" fill="#B8A141"/>
<path d="M294.028 157.829L292.942 157.254L253.352 231.621C253.828 231.869 254.303 232.119 254.775 232.373L294.028 157.829Z" fill="#B8A141"/>
<path d="M320.326 174.593L319.343 173.857L268.734 241.229C269.166 241.547 269.594 241.869 270.02 242.194L320.326 174.593Z" fill="#B8A141"/>
<path d="M343.885 195.405L343.03 194.526L282.479 253.163C282.845 253.535 283.212 253.907 283.573 254.285L343.885 195.405Z" fill="#B8A141"/>
<path d="M307.512 165.707L306.475 165.05L261.215 236.114C261.684 236.408 262.155 236.7 262.621 236.999L307.512 165.707Z" fill="#B8A141"/>
<path d="M61.0609 190.474L61.0537 190.466L60.1743 191.323L118.816 251.869C119.189 251.501 119.561 251.134 119.937 250.773L61.0609 190.474Z" fill="#B8A141"/>
<path d="M301.388 506.768H301.39L302.446 506.138L259.693 433.527C259.241 433.8 258.787 434.062 258.332 434.335L301.388 506.768Z" fill="#B8A141"/>
<path d="M314.663 498.247L315.666 497.546L267.3 428.524C266.872 428.821 266.44 429.13 266.008 429.427L314.663 498.247Z" fill="#B8A141"/>
<path d="M287.547 514.184H287.548L288.651 513.637L251.743 437.9C251.267 438.138 250.79 438.376 250.31 438.613L287.547 514.184Z" fill="#B8A141"/>
<path d="M327.172 488.74H327.174L328.119 487.956L274.452 422.962C274.054 423.294 273.655 423.627 273.252 423.96L327.172 488.74Z" fill="#B8A141"/>
<path d="M212.196 533.983L213.421 533.899L208.179 449.796C207.649 449.832 207.118 449.867 206.584 449.903L212.196 533.983Z" fill="#B8A141"/>
<path d="M227.798 532.402L227.799 532.413L229.014 532.235L217.216 448.809C216.686 448.893 216.155 448.964 215.623 449.035L227.798 532.402Z" fill="#B8A141"/>
<path d="M243.227 529.62L244.425 529.347L226.156 447.122C225.631 447.24 225.103 447.347 224.576 447.466L243.227 529.62Z" fill="#B8A141"/>
<path d="M273.171 520.494L274.312 520.043L243.458 441.644C242.96 441.846 242.463 442.048 241.963 442.238L273.171 520.494Z" fill="#B8A141"/>
<path d="M258.35 525.64L259.523 525.283L234.898 444.734C234.388 444.888 233.875 445.043 233.363 445.197L258.35 525.64Z" fill="#B8A141"/>
<path d="M338.946 478.235L339.826 477.379L281.194 416.818C280.817 417.198 280.443 417.567 280.062 417.923L338.946 478.235Z" fill="#B8A141"/>
<path d="M0.371031 346.566H0.368652L0.447563 347.79L84.5519 342.541C84.5151 342.007 84.4806 341.473 84.4509 340.937L0.371031 346.566Z" fill="#B8A141"/>
<path d="M393.629 384.529L393.933 383.341L312.341 362.282C312.215 362.781 312.088 363.292 311.955 363.803L393.629 384.529Z" fill="#B8A141"/>
<path d="M389.075 399.61L389.473 398.445L309.81 371.005C309.645 371.504 309.472 372.003 309.299 372.49L389.075 399.61Z" fill="#B8A141"/>
<path d="M399.102 353.502L399.215 352.281L315.308 344.325C315.263 344.851 315.22 345.379 315.168 345.902L399.102 353.502Z" fill="#B8A141"/>
<path d="M376.52 428.381L377.094 427.299L302.728 387.702C302.478 388.189 302.226 388.664 301.97 389.14L376.52 428.381Z" fill="#B8A141"/>
<path d="M368.643 441.857H368.646L369.302 440.824L298.229 395.581C297.937 396.044 297.646 396.508 297.348 396.971L368.643 441.857Z" fill="#B8A141"/>
<path d="M359.749 454.669L359.758 454.68L360.492 453.694L293.117 403.092C292.799 403.52 292.475 403.947 292.151 404.375L359.749 454.669Z" fill="#B8A141"/>
<path d="M383.357 414.262L383.844 413.133L306.603 379.502C306.397 379.989 306.18 380.464 305.966 380.952L383.357 414.262Z" fill="#B8A141"/>
<path d="M349.814 466.861H349.815L350.626 465.946L287.418 410.21C287.073 410.602 286.721 410.994 286.369 411.387L349.814 466.861Z" fill="#B8A141"/>
<path d="M396.981 369.103H396.983L397.192 367.891L314.179 353.351C314.093 353.868 314.013 354.386 313.92 354.899L396.981 369.103Z" fill="#B8A141"/>
<path d="M196.518 534.327L197.744 534.351L199.106 450.081C198.571 450.069 198.036 450.069 197.503 450.057L196.518 534.327Z" fill="#B8A141"/>
<path d="M27.5859 435.749L28.2102 436.807L100.829 394.048C100.556 393.596 100.289 393.145 100.022 392.681L27.5859 435.749Z" fill="#B8A141"/>
<path d="M45.6284 461.549H45.6265L46.4092 462.488L111.408 408.82C111.068 408.416 110.73 408.012 110.396 407.608L45.6284 461.549Z" fill="#B8A141"/>
<path d="M20.1684 421.892H20.1655L20.7054 422.997L96.4504 386.085C96.2115 385.61 95.9702 385.135 95.7385 384.659L20.1684 421.892Z" fill="#B8A141"/>
<path d="M13.8594 407.512L14.3114 408.653L92.7026 377.802C92.503 377.315 92.3033 376.816 92.1108 376.317L13.8594 407.512Z" fill="#B8A141"/>
<path d="M4.72852 377.576L4.99769 378.765L87.2261 360.499C87.1061 359.976 86.9968 359.453 86.8827 358.919L4.72852 377.576Z" fill="#B8A141"/>
<path d="M1.94574 362.163H1.94336L2.11889 363.375L85.5377 351.571C85.4592 351.042 85.3867 350.512 85.3142 349.982L1.94574 362.163Z" fill="#B8A141"/>
<path d="M56.1157 473.291L56.9702 474.17L117.521 415.534C117.154 415.166 116.788 414.797 116.427 414.417L56.1157 473.291Z" fill="#B8A141"/>
<path d="M8.70068 392.705L9.06232 393.87L89.6218 369.258C89.4601 368.747 89.3044 368.224 89.1488 367.713L8.70068 392.705Z" fill="#B8A141"/>
<path d="M36.0864 448.988H36.0845L36.7911 449.986L105.816 401.63C105.512 401.202 105.215 400.775 104.918 400.347L36.0864 448.988Z" fill="#B8A141"/>
<path d="M165.248 531.333L166.458 531.534L180.991 448.524C180.473 448.441 179.955 448.358 179.439 448.263L165.248 531.333Z" fill="#B8A141"/>
<path d="M149.84 527.981L151.029 528.29L172.076 446.694C171.572 446.563 171.069 446.445 170.567 446.314L149.84 527.981Z" fill="#B8A141"/>
<path d="M67.4805 484.164L68.4027 484.973L124.149 421.773C123.747 421.417 123.353 421.06 122.956 420.716L67.4805 484.164Z" fill="#B8A141"/>
<path d="M134.727 523.418L135.888 523.822L163.34 444.163C162.845 443.997 162.351 443.818 161.858 443.652L134.727 523.418Z" fill="#B8A141"/>
<path d="M180.85 533.448L182.07 533.567L190.025 449.653C189.497 449.606 188.967 449.57 188.44 449.522L180.85 533.448Z" fill="#B8A141"/>
<path d="M79.6738 494.111L80.6578 494.848L131.267 427.466C130.835 427.157 130.407 426.836 129.981 426.503L79.6738 494.111Z" fill="#B8A141"/>
<path d="M120.107 517.713L121.234 518.2L154.867 440.954C154.377 440.752 153.892 440.538 153.406 440.324L120.107 517.713Z" fill="#B8A141"/>
<path d="M92.4883 502.989L93.5258 503.654L138.772 432.576C138.307 432.291 137.841 431.994 137.38 431.697L92.4883 502.989Z" fill="#B8A141"/>
<path d="M105.973 510.868L107.056 511.45L146.647 437.08C146.167 436.831 145.688 436.581 145.211 436.32L105.973 510.868Z" fill="#B8A141"/>
<path d="M10.9204 269.1L10.5234 270.262L90.1885 297.697C90.3548 297.2 90.5272 296.706 90.6995 296.212L10.9204 269.1Z" fill="#B8A141"/>
<path d="M196.039 408.736C197.286 408.808 197.618 410.364 198.712 428.167C199.083 434.18 199.521 441.322 200 444.733C200.48 441.322 200.916 434.18 201.285 428.179C202.379 410.365 202.711 408.808 203.916 408.736H203.918C205.132 408.736 205.659 410.4 208.573 427.941C209.548 433.8 210.702 440.764 211.519 444.103C211.637 440.645 211.335 433.538 211.08 427.549C210.319 409.711 210.489 408.118 211.68 407.928C211.684 407.928 211.688 407.928 211.693 407.928C212.941 407.928 213.635 409.58 218.313 426.527C219.894 432.255 221.771 439.064 222.934 442.297C222.689 438.862 221.642 431.827 220.763 425.909C218.133 408.237 218.133 406.633 219.301 406.324L219.511 406.3C220.592 406.3 221.489 407.94 227.851 424.114C230.025 429.64 232.608 436.212 234.106 439.314C233.498 435.915 231.719 429.034 230.223 423.259C225.742 405.944 225.571 404.351 226.7 403.923L226.997 403.864C228.106 403.864 229.612 406.383 237.07 420.704C239.817 425.98 243.081 432.243 244.897 435.166C243.938 431.851 241.446 425.208 239.351 419.622C233.071 402.866 232.736 401.297 233.814 400.75L233.965 400.667L234.193 400.655C235.282 400.655 237.137 403.151 245.881 416.342C249.17 421.298 253.077 427.192 255.191 429.914C253.89 426.717 250.717 420.383 248.048 415.035C240.041 399.027 239.542 397.506 240.558 396.84L240.734 396.734L241.018 396.71C242.087 396.71 244.425 399.265 254.182 411.078C257.978 415.677 262.485 421.131 264.873 423.615C263.246 420.573 259.433 414.607 256.223 409.58C246.587 394.476 245.93 393.014 246.873 392.253L247.068 392.099L247.413 392.063C248.557 392.063 251.865 395.129 261.899 404.993C266.151 409.164 271.205 414.132 273.839 416.354C271.906 413.502 267.491 407.952 263.78 403.294C252.622 389.27 251.819 387.88 252.677 387.024L252.883 386.822L253.299 386.775C254.552 386.775 259.027 390.233 268.94 398.136C273.605 401.844 279.147 406.253 281.997 408.19C279.78 405.551 274.814 400.501 270.637 396.246C258.083 383.459 257.138 382.164 257.902 381.225C257.998 381.106 258.218 380.904 258.611 380.904C259.94 380.904 264.936 384.006 275.23 390.578C280.258 393.786 286.231 397.589 289.269 399.217C286.789 396.829 281.328 392.325 276.732 388.534C262.906 377.125 261.831 375.936 262.493 374.914C262.588 374.772 262.822 374.522 263.307 374.522C264.814 374.522 270.878 377.493 280.689 382.401C286.019 385.063 292.355 388.236 295.559 389.544C292.839 387.428 286.949 383.518 281.992 380.227C267.041 370.315 265.848 369.246 266.399 368.164C266.513 367.938 266.771 367.677 267.356 367.677C269.074 367.677 275.27 369.959 285.268 373.702C291.087 375.877 297.513 378.289 300.801 379.24C297.87 377.422 291.615 374.166 286.351 371.421C270.437 363.125 269.136 362.187 269.572 361.046C269.804 360.452 270.512 360.452 270.78 360.452C272.995 360.452 280.727 362.448 288.913 364.575C295.172 366.192 301.604 367.855 304.935 368.438C301.826 366.94 295.278 364.373 289.765 362.198C273.053 355.63 271.66 354.83 271.974 353.655C272.175 352.902 273.166 352.902 273.821 352.902C276.672 352.902 283.905 353.976 291.56 355.116C297.941 356.064 304.513 357.041 307.915 357.267C304.667 356.109 297.892 354.237 292.189 352.663C274.869 347.884 273.4 347.232 273.587 346.029C273.714 345.233 274.474 344.968 278.737 344.968C282.387 344.968 287.887 345.201 293.205 345.428C298.532 345.654 304.035 345.888 307.682 345.888C308.518 345.888 309.182 345.875 309.712 345.856C306.361 345.036 299.434 343.889 293.603 342.923C275.865 339.98 274.333 339.486 274.395 338.269C274.458 337.063 276.019 336.73 293.829 335.636C299.833 335.266 306.973 334.828 310.381 334.348C306.973 333.868 299.833 333.431 293.829 333.06C276.019 331.965 274.458 331.634 274.395 330.429C274.333 329.212 275.865 328.716 293.603 325.774C299.434 324.807 306.36 323.657 309.71 322.842C309.182 322.822 308.521 322.809 307.691 322.809C304.042 322.809 298.533 323.043 293.204 323.27C287.883 323.496 282.38 323.732 278.733 323.732C274.474 323.732 273.714 323.466 273.587 322.667C273.4 321.465 274.869 320.815 292.187 316.035C297.889 314.46 304.665 312.591 307.914 311.427C304.509 311.659 297.941 312.637 291.562 313.588C283.905 314.728 276.671 315.804 273.822 315.804C273.168 315.804 272.178 315.804 271.976 315.05C271.663 313.878 273.055 313.073 289.765 306.502C295.279 304.333 301.832 301.756 304.938 300.257C301.606 300.841 295.166 302.509 288.898 304.131C280.718 306.247 272.994 308.245 270.78 308.245C270.512 308.245 269.804 308.245 269.572 307.647C269.137 306.513 270.439 305.569 286.351 297.282C291.603 294.545 297.841 291.297 300.78 289.475C297.461 290.427 291.061 292.825 285.266 294.998C275.268 298.745 269.074 301.019 267.356 301.019C266.771 301.019 266.513 300.754 266.399 300.532C265.848 299.451 267.042 298.376 281.989 288.47C286.946 285.182 292.838 281.278 295.559 279.161C292.353 280.467 286.013 283.637 280.682 286.302C270.877 291.206 264.816 294.181 263.31 294.181C262.827 294.181 262.593 293.934 262.496 293.787C261.836 292.77 262.909 291.576 276.735 280.164C281.333 276.37 286.797 271.857 289.275 269.47C286.243 271.098 280.257 274.919 275.218 278.133C264.933 284.701 259.941 287.793 258.615 287.793C258.221 287.793 258.002 287.595 257.906 287.479C257.14 286.535 258.085 285.236 270.647 272.45C274.836 268.181 279.819 263.111 282.026 260.484C279.203 262.403 273.62 266.845 268.926 270.58C259.021 278.467 254.551 281.921 253.3 281.921H253.007L252.679 281.676C251.82 280.817 252.624 279.429 263.782 265.41C267.525 260.706 271.976 255.113 273.885 252.285C271.313 254.465 266.195 259.49 261.895 263.715C251.865 273.564 248.559 276.632 247.414 276.632H247.165L246.875 276.446C245.932 275.682 246.588 274.22 256.219 259.129C259.474 254.03 263.352 247.955 264.941 244.958C262.651 247.362 258.046 252.94 254.181 257.62C244.317 269.571 242.103 271.989 241.024 271.989H240.813L240.564 271.854C239.548 271.193 240.047 269.671 248.046 253.664C250.716 248.322 253.89 241.972 255.19 238.78C253.076 241.496 249.166 247.396 245.874 252.365C237.137 265.548 235.283 268.038 234.195 268.038H234.024L233.815 267.949C232.737 267.397 233.072 265.832 239.353 249.079C241.45 243.488 243.94 236.842 244.902 233.53C243.085 236.453 239.819 242.724 237.071 247.999C229.613 262.316 228.107 264.833 226.998 264.833L226.703 264.778C225.575 264.344 225.742 262.75 230.223 245.443C231.72 239.659 233.5 232.781 234.108 229.385C232.608 232.482 230.021 239.06 227.843 244.595C221.487 260.76 220.589 262.401 219.51 262.401L219.3 262.373C218.132 262.061 218.132 260.463 220.76 242.795C221.641 236.875 222.688 229.844 222.932 226.396C221.769 229.632 219.894 236.436 218.315 242.16C213.623 259.169 212.938 260.773 211.809 260.773C210.49 260.576 210.32 258.986 211.082 241.145C211.335 235.162 211.637 228.051 211.52 224.6C210.703 227.934 209.55 234.89 208.577 240.742C205.662 258.3 205.136 259.958 203.96 259.958C202.714 259.894 202.382 258.331 201.288 240.529C200.917 234.52 200.48 227.378 200 223.967C199.521 227.376 199.084 234.516 198.715 240.521C197.621 258.331 197.289 259.894 196.083 259.957H196.082C194.868 259.957 194.342 258.296 191.427 240.751C190.453 234.894 189.297 227.934 188.481 224.599C188.362 228.048 188.665 235.162 188.92 241.145C189.681 258.986 189.512 260.576 188.319 260.763C188.314 260.763 188.311 260.763 188.307 260.763C187.059 260.763 186.365 259.118 181.686 242.165C180.107 236.438 178.229 229.632 177.066 226.396C177.312 229.842 178.357 236.872 179.237 242.791C181.868 260.463 181.868 262.062 180.699 262.375L180.487 262.402C179.409 262.402 178.511 260.759 172.153 244.583C169.978 239.054 167.395 232.482 165.896 229.386C166.503 232.783 168.281 239.656 169.779 245.438C174.256 262.751 174.426 264.344 173.297 264.778L173 264.833C171.892 264.833 170.385 262.316 162.926 247.991C160.181 242.719 156.919 236.456 155.103 233.53C156.064 236.844 158.554 243.489 160.649 249.079C166.928 265.832 167.263 267.397 166.186 267.95L166.034 268.028L165.808 268.039C164.719 268.039 162.861 265.548 154.114 252.352C150.827 247.393 146.922 241.503 144.809 238.785C146.11 241.98 149.282 248.322 151.95 253.662C159.953 269.671 160.451 271.195 159.436 271.854L159.26 271.97L158.976 271.99C157.905 271.99 155.566 269.435 145.803 257.604C142.016 253.013 137.518 247.56 135.131 245.08C136.76 248.118 140.572 254.094 143.783 259.122C153.415 274.219 154.07 275.68 153.128 276.446L152.933 276.603L152.587 276.631C151.442 276.631 148.134 273.561 138.097 263.702C133.846 259.526 128.795 254.565 126.162 252.346C128.096 255.199 132.509 260.744 136.224 265.41C147.379 279.426 148.183 280.814 147.325 281.673L147.118 281.879L146.703 281.918C145.45 281.918 140.97 278.458 131.05 270.558C126.389 266.848 120.854 262.439 118.004 260.507C120.223 263.14 125.187 268.197 129.363 272.449C141.917 285.234 142.861 286.533 142.099 287.474C142.002 287.592 141.782 287.79 141.388 287.79C140.06 287.79 135.065 284.693 124.768 278.12C119.741 274.913 113.771 271.1 110.736 269.472C113.216 271.861 118.678 276.37 123.273 280.163C137.096 291.57 138.169 292.764 137.507 293.781C137.411 293.928 137.178 294.178 136.695 294.178C135.185 294.178 129.119 291.196 119.303 286.289C113.978 283.628 107.645 280.461 104.443 279.158C107.162 281.272 113.053 285.178 118.01 288.466C132.959 298.376 134.152 299.452 133.6 300.532C133.487 300.756 133.229 301.021 132.645 301.021C130.924 301.021 124.728 298.744 114.727 294.994C108.91 292.814 102.488 290.406 99.1997 289.46C102.133 291.281 108.385 294.537 113.648 297.28C129.564 305.57 130.864 306.515 130.426 307.65C130.196 308.247 129.486 308.247 129.22 308.247C127.005 308.247 119.272 306.246 111.085 304.126C104.823 302.505 98.3927 300.84 95.0628 300.257C98.1717 301.755 104.722 304.332 110.236 306.502C126.946 313.071 128.338 313.874 128.026 315.049C127.824 315.802 126.835 315.802 126.18 315.802C123.332 315.802 116.098 314.727 108.44 313.587C102.06 312.636 95.4906 311.658 92.0858 311.425C95.3361 312.591 102.107 314.459 107.811 316.034C125.13 320.814 126.601 321.464 126.412 322.666C126.287 323.465 125.524 323.731 121.261 323.731C117.613 323.731 112.113 323.496 106.795 323.27C101.47 323.043 95.9636 322.81 92.3175 322.81C91.4821 322.81 90.8166 322.822 90.2889 322.842C93.6391 323.66 100.566 324.808 106.4 325.775C124.134 328.716 125.668 329.212 125.606 330.429C125.542 331.634 123.982 331.965 106.171 333.06C100.167 333.431 93.027 333.868 89.6186 334.348C93.027 334.828 100.167 335.266 106.171 335.636C123.982 336.73 125.542 337.063 125.606 338.269C125.668 339.486 124.134 339.98 106.394 342.923C100.563 343.89 93.6402 345.04 90.2901 345.856C90.8166 345.875 91.4797 345.889 92.3116 345.889C95.9588 345.889 101.468 345.654 106.796 345.428C112.117 345.201 117.619 344.967 121.266 344.967C125.524 344.967 126.287 345.232 126.412 346.028C126.601 347.231 125.13 347.883 107.813 352.662C102.11 354.236 95.3361 356.106 92.0858 357.267C95.4906 357.041 102.06 356.06 108.44 355.11C116.099 353.969 123.332 352.893 126.179 352.893C126.834 352.893 127.821 352.893 128.024 353.646C128.337 354.821 126.944 355.623 110.233 362.198C104.72 364.361 98.1705 366.94 95.0616 368.438C98.3939 367.855 104.829 366.192 111.097 364.563C119.279 362.448 127.006 360.452 129.22 360.452C129.486 360.452 130.196 360.452 130.426 361.046C130.863 362.187 129.563 363.125 113.648 371.421C108.397 374.154 102.161 377.398 99.221 379.228C102.543 378.266 108.939 375.865 114.735 373.69C124.73 369.947 130.924 367.677 132.644 367.677C133.228 367.677 133.485 367.938 133.597 368.152C134.15 369.246 132.957 370.315 118.005 380.227C113.048 383.507 107.158 387.416 104.439 389.532C107.645 388.225 113.981 385.063 119.314 382.389C129.122 377.493 135.184 374.51 136.691 374.51C137.174 374.51 137.408 374.76 137.504 374.914C138.167 375.925 137.091 377.125 123.262 388.534C118.667 392.336 113.205 396.84 110.726 399.229C113.759 397.601 119.744 393.774 124.779 390.566C135.066 383.994 140.056 380.904 141.384 380.904C141.776 380.904 141.997 381.094 142.093 381.213C142.857 382.164 141.913 383.459 129.356 396.246C125.167 400.513 120.182 405.587 117.977 408.213C120.797 406.3 126.374 401.856 131.065 398.124C140.976 390.233 145.45 386.775 146.702 386.775H146.995L147.323 387.024C148.181 387.88 147.377 389.27 136.22 403.282C132.474 407.976 128.02 413.573 126.109 416.402C128.682 414.227 133.798 409.2 138.097 404.981C148.134 395.129 151.441 392.063 152.586 392.063H152.836L153.126 392.253C154.068 393.014 153.413 394.476 143.78 409.568C140.523 414.667 136.649 420.739 135.059 423.734C137.35 421.333 141.954 415.76 145.819 411.078C155.682 399.122 157.898 396.71 158.977 396.71H159.187L159.437 396.84C160.452 397.506 159.954 399.027 151.955 415.035C149.284 420.371 146.11 426.717 144.81 429.914C146.923 427.204 150.834 421.298 154.124 416.33C162.862 403.151 164.718 400.655 165.804 400.655H165.974L166.184 400.75C167.263 401.297 166.926 402.866 160.647 419.622C158.549 425.208 156.059 431.851 155.098 435.166C156.914 432.243 160.183 425.968 162.933 420.692C170.391 406.383 171.895 403.864 173.004 403.864L173.301 403.923C174.429 404.351 174.26 405.944 169.781 423.247C168.283 429.034 166.502 435.915 165.894 439.314C167.395 436.212 169.978 429.64 172.153 424.114C178.513 407.94 179.411 406.3 180.489 406.3L180.7 406.324C181.869 406.633 181.869 408.237 179.237 425.909C178.355 431.827 177.311 438.851 177.065 442.297C178.227 439.064 180.106 432.255 181.685 426.539C186.38 409.533 187.064 407.928 188.193 407.928C189.512 408.118 189.681 409.711 188.92 427.549C188.665 433.538 188.362 440.645 188.481 444.091C189.297 440.764 190.451 433.812 191.423 427.953C194.34 410.4 194.865 408.736 196.039 408.736ZM200 447.859C198.752 447.859 198.409 446.29 197.301 428.262C196.915 421.951 196.449 414.405 195.945 411.291C195.116 414.346 193.862 421.904 192.816 428.191C189.907 445.72 189.423 447.253 188.242 447.253C186.915 447.11 186.738 445.517 187.509 427.489C187.777 421.179 188.1 413.597 187.919 410.46C186.775 413.407 184.742 420.775 183.05 426.907C178.381 443.818 177.701 445.411 176.581 445.411L176.506 445.422L176.411 445.399C175.192 445.137 175.185 443.533 177.838 425.695C178.77 419.444 179.888 411.933 180.038 408.796C178.593 411.6 175.797 418.707 173.467 424.625C167.137 440.728 166.242 442.368 165.172 442.368L164.918 442.321C163.733 441.94 163.893 440.348 168.412 422.89C169.998 416.77 171.902 409.414 172.381 406.3C170.65 408.938 167.122 415.712 164.187 421.345C156.751 435.618 155.249 438.126 154.146 438.126H153.995L153.81 438.054C152.672 437.555 153 435.986 159.323 419.123C161.548 413.193 164.216 406.074 165.021 403.02C163.022 405.468 158.811 411.826 155.304 417.115C146.577 430.282 144.726 432.766 143.642 432.766H143.452L143.226 432.659C142.148 432.029 142.639 430.508 150.689 414.405C153.553 408.665 156.999 401.772 158.077 398.885C155.966 401 151.018 407.001 146.909 411.981C137.051 423.912 134.838 426.337 133.759 426.337H133.528L133.264 426.17C132.258 425.445 132.903 423.984 142.589 408.808C146.021 403.436 150.147 396.971 151.541 394.178C149.162 396.104 143.663 401.499 139.086 405.991C129.056 415.843 125.751 418.909 124.607 418.909H124.335L124.034 418.695C123.111 417.863 123.906 416.473 135.115 402.402C139.075 397.423 143.831 391.457 145.525 388.819C142.914 390.494 136.928 395.26 131.943 399.229C122.027 407.12 117.551 410.578 116.3 410.578H115.984L115.647 410.305C114.817 409.378 115.75 408.083 128.347 395.26C132.797 390.72 138.139 385.289 140.11 382.829C137.306 384.243 130.888 388.343 125.54 391.754C115.236 398.338 110.236 401.428 108.907 401.428C108.487 401.428 108.266 401.214 108.171 401.083C107.44 400.073 108.505 398.885 122.362 387.44C127.257 383.412 133.135 378.563 135.356 376.317C132.398 377.434 125.604 380.833 119.946 383.661C110.118 388.569 104.039 391.552 102.527 391.552C102.016 391.552 101.783 391.279 101.691 391.124C101.069 390.043 102.25 388.973 117.224 379.05C122.501 375.544 128.833 371.349 131.295 369.341C128.21 370.149 121.38 372.716 115.23 375.021C105.205 378.777 98.9917 381.058 97.2625 381.058C96.6505 381.058 96.3938 380.773 96.2857 380.536C95.7806 379.407 97.0676 378.456 112.995 370.161C118.62 367.237 125.369 363.72 128.02 361.985C124.932 362.448 118.093 364.219 111.45 365.942C103.237 368.057 95.4775 370.066 93.2469 370.066C92.9593 370.03 92.2272 370.066 92.0204 369.424C91.6378 368.247 93.0163 367.451 109.717 360.879C115.619 358.562 122.702 355.773 125.525 354.323C122.373 354.464 115.405 355.502 108.648 356.506C100.959 357.647 93.6913 358.74 90.8166 358.74C90.8118 358.74 90.8071 358.74 90.8011 358.74C90.1641 358.74 89.1171 358.728 88.9496 357.932C88.6929 356.72 90.1487 356.071 107.438 351.301C113.556 349.611 120.897 347.585 123.859 346.441C123.269 346.405 122.439 346.38 121.266 346.38C117.649 346.38 112.162 346.613 106.854 346.837C101.513 347.065 95.9897 347.302 92.3116 347.302C87.9537 347.302 87.1883 347.023 87.1016 346.188C86.9732 344.957 88.4885 344.46 106.161 341.529C112.449 340.485 119.997 339.235 123.05 338.402C119.946 337.9 112.385 337.435 106.087 337.047C88.0606 335.937 86.4907 335.597 86.4907 334.348C86.4907 333.098 88.0606 332.759 106.087 331.651C112.385 331.263 119.945 330.798 123.048 330.293C119.997 329.465 112.452 328.213 106.167 327.169C88.4885 324.237 86.9732 323.741 87.1016 322.508C87.1883 321.673 87.9537 321.396 92.3175 321.396C95.9945 321.396 101.515 321.631 106.853 321.858C112.158 322.083 117.644 322.314 121.261 322.314C122.438 322.314 123.269 322.292 123.859 322.256C120.897 321.111 113.555 319.086 107.435 317.397C90.1487 312.624 88.6929 311.972 88.9496 310.761C89.1183 309.962 90.1819 309.962 90.8178 309.962C93.6925 309.962 100.959 311.042 108.648 312.188C115.405 313.192 122.373 314.231 125.528 314.375C122.703 312.923 115.622 310.139 109.721 307.817C93.0175 301.248 91.6389 300.445 92.0216 299.265C92.2296 298.626 92.9961 298.626 93.2469 298.626C95.4751 298.626 103.23 300.631 111.438 302.757C118.088 304.479 124.932 306.252 128.021 306.718C125.371 304.98 118.621 301.463 112.995 298.536C97.07 290.237 95.7818 289.294 96.2868 288.157C96.395 287.919 96.6505 287.633 97.2637 287.633C98.9893 287.633 105.201 289.914 115.223 293.673C121.403 295.989 128.268 298.561 131.311 299.359C128.859 297.356 122.515 293.147 117.232 289.643C102.256 279.715 101.074 278.641 101.698 277.566C101.79 277.405 102.023 277.135 102.534 277.135C104.044 277.135 110.116 280.115 119.935 285.026C125.598 287.858 132.4 291.257 135.361 292.382C133.138 290.137 127.266 285.293 122.373 281.253C108.509 269.808 107.445 268.615 108.176 267.611C108.271 267.48 108.493 267.262 108.913 267.262C110.24 267.262 115.234 270.357 125.529 276.929C130.877 280.345 137.298 284.441 140.111 285.863C138.139 283.404 132.801 277.968 128.355 273.439C115.755 260.608 114.821 259.31 115.653 258.388L115.864 258.155L116.305 258.111C117.554 258.111 122.026 261.568 131.929 269.452C136.9 273.409 142.863 278.158 145.516 279.865C143.812 277.215 139.069 271.256 135.117 266.291C123.916 252.216 123.122 250.827 124.045 249.995L124.247 249.814L124.618 249.784C125.762 249.784 129.065 252.848 139.086 262.693C143.618 267.143 149.056 272.487 151.516 274.459C150.097 271.646 146.003 265.229 142.591 259.884C132.91 244.715 132.263 243.25 133.269 242.519L133.455 242.384L133.764 242.361C134.84 242.361 137.051 244.775 146.894 256.704C150.941 261.608 155.797 267.493 158.042 269.712C156.921 266.77 153.519 259.963 150.685 254.291C142.637 238.19 142.147 236.665 143.223 236.044L143.389 235.946L143.639 235.933C144.721 235.933 146.572 238.418 155.292 251.57C158.805 256.87 163.022 263.234 165.022 265.674C164.218 262.629 161.55 255.51 159.325 249.576C153.004 232.712 152.677 231.144 153.815 230.637L153.951 230.574L154.148 230.566C155.253 230.566 156.753 233.074 164.18 247.338C167.119 252.981 170.646 259.757 172.379 262.395C171.9 259.284 169.996 251.924 168.408 245.792C163.897 228.349 163.735 226.756 164.919 226.371L165.172 226.332C166.243 226.332 167.137 227.967 173.467 244.068C175.797 249.989 178.593 257.101 180.038 259.908C179.887 256.766 178.77 249.255 177.838 242.998C175.185 225.159 175.193 223.556 176.412 223.298L176.581 223.281C177.702 223.281 178.383 224.875 183.05 241.788C184.742 247.926 186.775 255.293 187.919 258.237C188.1 255.1 187.777 247.522 187.509 241.207C186.738 223.177 186.915 221.583 188.157 221.452C188.159 221.452 188.161 221.452 188.161 221.452C189.424 221.452 189.911 223.001 192.821 240.52C193.865 246.804 195.118 254.35 195.95 257.399C196.454 254.297 196.917 246.734 197.303 240.437C198.409 222.41 198.752 220.841 200 220.841C201.249 220.841 201.59 222.41 202.699 240.442C203.085 246.739 203.551 254.297 204.054 257.399C204.884 254.348 206.137 246.797 207.183 240.51C210.093 222.976 210.579 221.446 211.759 221.446C213.084 221.583 213.262 223.177 212.494 241.207C212.224 247.522 211.902 255.1 212.083 258.237C213.226 255.293 215.258 247.924 216.952 241.784C221.617 224.875 222.296 223.281 223.415 223.281L223.585 223.298C224.805 223.556 224.813 225.159 222.159 243.002C221.23 249.256 220.112 256.766 219.961 259.905C221.406 257.101 224.201 249.995 226.528 244.076C232.864 227.968 233.758 226.332 234.83 226.332L235.083 226.372C236.268 226.756 236.106 228.353 231.589 245.797C230.004 251.925 228.101 259.284 227.621 262.392C229.353 259.756 232.879 252.985 235.818 247.344C243.251 233.075 244.751 230.566 245.855 230.566H246.005L246.191 230.639C247.327 231.144 246.999 232.714 240.677 249.576C238.454 255.507 235.784 262.627 234.98 265.672C236.978 263.232 241.189 256.875 244.697 251.582C253.423 238.418 255.274 235.931 256.358 235.931H256.548L256.774 236.041C257.852 236.664 257.362 238.189 249.311 254.295C246.446 260.028 243 266.921 241.923 269.808C244.034 267.693 248.982 261.699 253.091 256.721C262.95 244.779 265.162 242.363 266.242 242.363H266.472L266.735 242.521C267.742 243.252 267.096 244.719 257.41 259.891C253.978 265.265 249.855 271.727 248.46 274.512C250.838 272.59 256.333 267.194 260.904 262.704C270.935 252.853 274.242 249.787 275.386 249.787H275.657L275.959 250C276.882 250.832 276.087 252.221 264.889 266.291C260.925 271.269 256.166 277.245 254.472 279.886C257.083 278.202 263.067 273.441 268.045 269.477C277.97 261.579 282.448 258.119 283.701 258.119H284.016L284.353 258.393C285.184 259.318 284.25 260.615 271.652 273.44C267.203 277.972 261.859 283.412 259.888 285.87C262.693 284.452 269.112 280.357 274.459 276.944C284.763 270.363 289.763 267.265 291.093 267.265C291.512 267.265 291.735 267.484 291.83 267.616C292.56 268.62 291.496 269.814 277.636 281.254C272.742 285.295 266.867 290.143 264.646 292.387C267.604 291.261 274.395 287.865 280.049 285.038C289.879 280.124 295.956 277.14 297.469 277.14C297.98 277.14 298.213 277.409 298.306 277.571C298.929 278.644 297.745 279.721 282.77 289.646C277.494 293.144 271.166 297.339 268.705 299.346C271.789 298.539 278.62 295.979 284.769 293.676C294.796 289.917 301.008 287.638 302.737 287.638C303.349 287.638 303.607 287.922 303.714 288.162C304.221 289.296 302.93 290.239 287.003 298.536C281.38 301.463 274.631 304.978 271.98 306.715C275.066 306.25 281.902 304.479 288.544 302.76C296.761 300.634 304.521 298.627 306.754 298.627C307.005 298.627 307.773 298.627 307.981 299.269C308.362 300.448 306.984 301.251 290.282 307.82C284.379 310.139 277.297 312.924 274.473 314.375C277.627 314.232 284.596 313.195 291.352 312.189C299.044 311.044 306.309 309.962 309.182 309.962C309.818 309.962 310.882 309.962 311.05 310.762C311.307 311.972 309.852 312.625 292.562 317.397C286.444 319.087 279.103 321.113 276.142 322.256C276.731 322.293 277.562 322.316 278.733 322.316C282.35 322.316 287.837 322.084 293.143 321.858C298.488 321.63 304.013 321.396 307.691 321.396C312.047 321.396 312.812 321.673 312.897 322.507C313.027 323.739 311.511 324.236 293.835 327.167C287.548 328.213 280.002 329.465 276.95 330.293C280.054 330.798 287.615 331.263 293.915 331.651C311.941 332.759 313.509 333.098 313.509 334.348C313.509 335.597 311.941 335.937 293.915 337.047C287.615 337.435 280.055 337.9 276.95 338.402C280.002 339.233 287.548 340.485 293.835 341.529C311.511 344.46 313.027 344.956 312.897 346.188C312.812 347.023 312.046 347.301 307.682 347.301C304.007 347.301 298.485 347.065 293.147 346.838C287.841 346.614 282.356 346.381 278.737 346.381C277.563 346.381 276.731 346.406 276.142 346.441C279.103 347.587 286.447 349.613 292.566 351.302C309.852 356.072 311.307 356.72 311.05 357.932C310.882 358.74 309.817 358.74 309.179 358.74C306.305 358.74 299.041 357.659 291.352 356.518C284.595 355.508 277.626 354.473 274.47 354.331C277.293 355.78 284.378 358.562 290.282 360.891C306.982 367.451 308.361 368.247 307.979 369.436C307.77 370.078 307.004 370.078 306.753 370.078C304.525 370.078 296.769 368.069 288.557 365.942C281.909 364.219 275.067 362.448 271.979 361.985C274.629 363.72 281.379 367.237 287.004 370.161C302.93 378.456 304.218 379.407 303.713 380.536C303.605 380.773 303.348 381.07 302.737 381.07C301.009 381.07 294.799 378.777 284.772 375.021C278.594 372.704 271.733 370.137 268.692 369.341C271.142 371.337 277.487 375.544 282.772 379.05C297.744 388.985 298.926 390.055 298.305 391.124C298.211 391.291 297.979 391.564 297.468 391.564C295.956 391.564 289.882 388.581 280.058 383.673C274.396 380.833 267.599 377.446 264.643 376.317C266.863 378.563 272.736 383.412 277.633 387.44C291.496 398.885 292.559 400.073 291.828 401.083C291.734 401.214 291.512 401.428 291.092 401.428C289.763 401.428 284.767 398.338 274.469 391.766C269.121 388.355 262.703 384.255 259.888 382.829C261.862 385.289 267.198 390.732 271.645 395.26C284.244 408.095 285.18 409.39 284.348 410.305L284.137 410.543L283.697 410.59C282.444 410.59 277.971 407.132 268.059 399.241C263.095 395.284 257.137 390.542 254.485 388.831C256.191 391.481 260.934 397.447 264.886 402.414C276.084 416.485 276.877 417.875 275.954 418.707L275.753 418.885L275.384 418.909H275.382C274.239 418.909 270.933 415.843 260.906 406.003C256.38 401.547 250.943 396.211 248.484 394.238C249.905 397.054 254.003 403.472 257.415 408.82C267.093 423.984 267.739 425.445 266.734 426.17L266.549 426.313L266.24 426.337C265.162 426.337 262.95 423.924 253.092 411.981C249.051 407.085 244.196 401.202 241.953 398.991C243.073 401.939 246.477 408.736 249.312 414.405C257.364 430.508 257.853 432.029 256.777 432.647L256.614 432.754L256.363 432.766H256.362C255.277 432.766 253.423 430.27 244.703 417.115C241.192 411.826 236.976 405.468 234.979 403.02C235.782 406.062 238.451 413.193 240.675 419.123C246.995 435.986 247.323 437.555 246.185 438.054L246.049 438.126H245.851C244.747 438.126 243.245 435.618 235.816 421.357C232.878 415.712 229.351 408.938 227.621 406.3C228.099 409.414 230.004 416.77 231.589 422.902C236.106 440.348 236.268 441.94 235.083 442.321L234.832 442.368H234.83C233.759 442.368 232.864 440.728 226.535 424.637C224.207 418.707 221.408 411.6 219.962 408.784C220.113 411.933 221.231 419.444 222.162 425.695C224.814 443.533 224.806 445.137 223.588 445.399L223.419 445.422C222.298 445.422 221.617 443.818 216.95 426.907C215.257 420.775 213.223 413.407 212.08 410.46C211.9 413.597 212.224 421.179 212.493 427.489C213.262 445.517 213.084 447.11 211.844 447.241C211.841 447.241 211.839 447.241 211.838 447.241C210.577 447.241 210.087 445.696 207.178 428.179C206.135 421.892 204.882 414.346 204.051 411.291C203.547 414.405 203.083 421.963 202.696 428.262C201.59 446.29 201.249 447.859 200 447.859Z" fill="#B8A141"/>
<path d="M365.024 506.658C352.763 493.432 338.654 481.148 325.992 468.192C319.093 461.12 311.46 455.139 302.236 450.09C296.13 446.749 289.474 443.623 282.297 441.793C280.768 441.403 279.187 441.351 277.634 441.038C277.473 441.011 276.581 440.33 276.361 440.286C274.073 439.816 271.656 439.319 269.146 439.532C265.829 435.943 264.192 430.862 262.786 425.577C262.996 424.39 266.19 424.066 264.903 422.563C263.919 419.62 262.118 417.024 260.664 414.264C260.664 409.993 257.376 406.941 257.266 403.326C256.105 397.859 253.892 393.727 253.447 388.242C252.497 376.415 254.887 367.955 256.844 358.829C257.147 357.417 257.337 356.104 257.697 354.68C258.044 353.281 258.612 351.914 258.967 350.535C259.716 347.605 259.999 344.647 260.664 341.857C261.426 338.673 262.576 335.168 263.634 332.43C264.019 331.426 264.56 330.454 264.903 329.792C272.168 315.855 271.854 302.185 281.026 288.683C284.25 275.163 283.568 260.829 281.875 247.203C281.284 242.481 280.088 237.839 280.181 233.249C280.181 233.001 280.152 232.744 280.181 232.492C280.799 226.539 281.874 220.558 282.297 214.393C282.634 209.48 282.598 204.376 282.723 199.683C282.761 198.151 283.183 196.343 283.145 194.786C283.101 192.689 282.507 190.565 282.297 188.372C282.089 186.109 281.721 183.869 281.454 181.585C280.899 176.949 280.167 172.053 280.6 167.632C280.799 165.649 281.689 163.648 281.875 161.596C282.178 158.235 281.639 154.907 281.454 151.415C280.872 140.675 279.722 130.275 279.751 120.116C279.797 107.075 281.092 94.4472 283.145 82.025C284.21 75.6244 284.759 69.7119 283.996 63.5462C283.021 55.6758 282.663 48.0568 281.026 39.0365C280.261 34.8119 280.048 29.6833 280.6 25.0816C281.556 24.1702 282.122 22.9148 282.297 21.3101C283.114 20.2747 283.919 19.232 283.996 17.5385C284.624 15.3976 281.39 16.6918 282.723 14.8966C283.644 12.3508 285.098 8.97114 286.119 6.22566C286.656 4.76694 288.854 1.67013 286.119 0.947246C285.839 0.947246 285.548 0.947246 285.271 0.947246C281.664 1.76627 280.234 4.44333 278.478 6.9799C275.858 10.7663 273.62 14.7006 272.118 19.4262C271.588 21.0845 271.581 22.8539 271.269 24.7027C270.982 26.3832 270.227 27.9843 269.995 29.6094C269.83 30.7742 270.14 32.0479 269.995 33.3791C269.863 34.566 269.381 35.5237 269.146 36.7717C267.205 36.8086 264.847 36.4648 264.057 37.526C261.43 40.5396 261.199 45.3631 260.238 49.2178C259.666 51.4993 258.354 54.7199 258.541 57.1345C258.655 58.5544 259.631 59.8153 260.238 61.2832C260.912 62.9139 261.203 64.6055 261.931 65.8091C262.056 66.0106 262.592 66.2954 262.786 66.5616C264.629 69.0982 267.12 71.1374 268.299 73.7294C267.838 83.5891 264.656 93.0236 261.931 102.767C260.664 107.319 259.335 112.105 258.115 116.72C256.85 121.527 255.138 126.175 254.722 131.052C254.273 136.347 254.905 141.364 255.151 146.512C255.91 162.6 251.182 175.516 249.207 189.127C248.951 190.894 248.726 192.689 248.508 194.488C247.089 194.348 245.916 193.638 245.012 192.689C244.843 192.351 244.65 192.042 244.689 191.517C244.296 191.371 244.013 191.118 243.793 190.815C245.099 191.628 246.626 192.092 248.171 191.711C245.519 191.909 243.68 190.033 242.562 188.2C242.22 187.653 241.919 187.089 241.634 186.516C241.441 185.987 241.251 185.453 241.066 184.922C240.794 184.139 240.528 183.347 240.218 182.532L240.053 182.597C239.993 182.428 239.935 182.262 239.874 182.096C239.818 181.929 239.758 181.763 239.704 181.596C239.714 181.452 239.721 181.308 239.723 181.171C240.48 181.999 241.513 182.726 242.809 182.587C244.371 182.377 245.436 181.349 246.386 180.415C245.363 181.277 244.165 182.194 242.778 182.266C241.372 182.314 240.417 181.193 239.779 180.134C239.75 180.079 239.721 180.025 239.691 179.971C239.577 178.568 239.228 177.374 239.124 175.961C238.543 175.336 237.984 174.691 237.63 173.865C238.088 174.436 238.573 174.994 239.124 175.512C240.234 176.664 242.233 177.622 243.849 176.83C242.102 177.328 240.634 176.222 239.791 175.031C238.876 173.819 238.254 172.443 237.593 171.042C236.179 168.183 234.246 165.405 231.179 163.325C230.087 162.55 228.816 161.969 227.51 161.461C227.121 161.073 226.711 160.71 226.27 160.368C225.37 159.671 224.344 159.046 223.024 158.649C222.269 158.401 221.283 158.333 220.332 158.516C219.642 158.192 218.972 157.858 218.236 157.573C219.536 157.787 220.894 157.775 222.123 157.309C223.814 156.667 225.012 155.421 225.933 154.116C224.898 155.349 223.585 156.473 221.969 156.943C220.347 157.414 218.623 157.1 217.09 156.501C216.934 156.44 216.788 156.375 216.634 156.31C216.747 156.295 216.857 156.275 216.967 156.249C218.24 155.961 218.985 155.003 219.378 154.116C218.733 154.909 217.818 155.541 216.838 155.517C215.877 155.519 214.954 155.086 214.089 154.593C213.85 154.458 213.619 154.319 213.39 154.166C213.39 154.127 213.39 154.086 213.4 154.036C213.309 154.027 213.211 154.012 213.126 153.999C211.741 153.077 210.416 151.99 208.696 151.037C207.945 150.646 207.082 150.239 205.88 150.098C205.098 149.756 204.268 149.481 203.361 149.327C201.587 148.974 199.75 148.767 197.872 148.791C196.007 148.821 194.102 149.083 192.29 149.632C190.379 150.218 188.802 151.102 187.276 152.067C186.157 152.792 185.088 153.583 184.098 154.567C183.228 155.493 182.159 156.547 181.978 158.455C181.972 158.505 181.97 158.562 181.966 158.614L181.394 158.989C180.884 159.329 180.354 159.66 179.834 159.997C178.784 160.664 177.719 161.335 176.656 162.029C175.381 162.844 174.104 163.707 172.877 164.654C172.86 164.65 172.842 164.65 172.827 164.647C172.796 164.689 172.761 164.724 172.725 164.767C172.176 165.197 171.631 165.643 171.103 166.107C170.843 166.214 170.685 166.421 170.529 166.627C170.487 166.667 170.439 166.706 170.398 166.747C168.516 167.716 166.4 168.265 164.192 167.547C165.666 168.331 167.376 168.409 169.052 168.117C168.927 168.255 168.805 168.396 168.68 168.538C168.397 168.814 168.1 169.074 167.931 169.446C166.319 171.519 165.157 173.837 164.393 176.194L164.385 176.189C163.093 177.551 162.603 178.927 162.193 180.204C161.908 181.214 161.696 182.181 161.504 183.118C160.625 185.473 159.181 187.836 156.234 188.539C158.052 188.42 159.574 187.52 160.791 186.324C160.793 186.363 160.801 186.396 160.806 186.437C160.639 187.097 160.454 187.751 160.225 188.404C158.882 190.508 156.858 192.292 154.05 192.774C156.186 192.582 158.023 191.574 159.489 190.201C158.297 192.983 156.631 195.636 154.749 198.178C153.936 192.469 153.381 186.629 152.48 180.831C151.939 177.34 151.122 173.73 150.363 170.272C149.595 166.813 148.279 163.482 147.813 160.087C146.607 151.189 148.959 141.694 148.241 132.938C147.898 128.754 146.65 124.531 145.696 120.493C144.683 116.235 143.782 112.126 142.726 108.045C140.107 97.995 136.343 87.0334 135.935 76.7448C138.647 70.1113 146.632 66.3841 147.389 58.645C147.667 55.8847 146.259 52.9691 145.696 49.9722C144.953 46.012 145.328 41.2828 142.301 38.6593C141.089 38.003 139.184 38.4042 138.481 39.0365C137.104 38.9884 137.133 41.1829 135.935 40.1624C135.199 39.0845 134.929 37.8459 134.666 36.3927C134.171 33.6749 134.602 30.7131 134.238 28.8551C132.811 21.4598 130.345 14.0867 124.481 11.5058C123.281 7.78413 119.034 2.12126 116 4.33983C116.911 10.3152 120.128 14.2421 121.083 20.1786C119.929 20.1398 117.497 17.8491 116.846 19.7996C117.113 23.3937 119.968 26.422 121.083 29.9847C121.524 31.3731 121.647 33.2682 121.94 34.884C122.269 36.7236 122.886 38.5058 122.784 40.1624C122.701 41.5952 121.692 43.2776 121.514 44.6901C121.023 48.5375 121.331 52.982 120.663 57.5116C120.097 61.335 118.866 65.2082 118.544 69.2053C117.826 78.087 120.345 84.5043 121.514 91.454C124.072 106.755 124.444 124.701 122.784 140.854C122.435 144.278 121.738 147.625 121.514 151.037C121.262 154.805 120.746 158.873 121.083 162.35C121.36 165.12 122.541 167.771 122.784 170.648C123.204 175.584 122.256 180.838 121.94 186.109C121.274 196.999 121.383 207.341 122.36 217.408C122.84 222.409 124.382 227.388 124.481 232.117C124.556 235.632 123.65 239.141 123.209 242.676C122.275 250.241 121.645 257.801 121.94 265.303C122.09 269.291 121.988 273.211 122.36 276.995C122.863 282.07 135.571 310.359 133.776 311.085C132.191 311.727 140.02 334.434 141.024 337.712C143.907 348.777 145.126 362.142 146.971 373.915C147.644 378.251 148.339 382.575 148.241 386.735C148.098 392.659 145.402 398.07 144.843 403.705C139.785 419.05 136.713 432.72 131.694 448.962C130.243 453.651 128.664 459.922 127.88 464.422C127.664 465.62 127.62 466.593 127.447 467.815C127.139 470.07 126.382 472.566 126.605 474.605C126.753 475.983 127.907 477.227 127.88 478.752C128.514 489.573 130.255 499.562 132.117 508.921C133.441 515.586 134.558 521.733 136.361 527.775C137.256 530.765 138.371 533.534 139.331 536.45C143.142 548.025 147.73 559.786 152.06 570.766C154.304 576.484 156.879 581.912 158.846 587.738C160.86 593.715 162.026 600.14 163.085 606.596C164.264 613.767 163.932 620.382 163.932 628.093C163.932 633.003 164.179 638.127 163.932 643.551C163.711 648.598 163.012 654.068 163.514 659.391C164.009 664.711 166.388 670.916 167.748 674.853C170.215 681.967 172.095 689.212 174.545 695.971C175.982 699.958 177.987 703.569 179.63 707.288C181.234 710.901 182.717 714.709 184.295 718.601C185.832 722.362 187.228 726.274 188.542 730.288C191.277 738.621 194.397 747.597 193.636 757.069C193.376 760.256 192.219 764.553 192.785 767.999C187.465 776.473 179.574 782.655 170.728 787.982C166.796 789.398 158.119 794.959 164.922 798.424C170.689 801.365 175.832 799.934 181.631 800.81C186.828 801.594 197.352 798.886 201.267 795.91C202.978 794.619 203.546 791.83 205.936 791.381C208.571 791.297 211.581 791.391 213.995 790.252C221.412 786.749 219.028 775.49 216.539 768.756C217.213 766.472 217.88 763.979 217.814 761.592C217.701 757.484 215.37 753.474 214.422 749.151C213.981 747.132 213.7 745.041 213.573 742.734C213.055 733.527 213.232 723.583 212.72 713.317C212.242 703.59 211.449 693.642 211.449 683.906C211.449 673.807 211.377 664.139 209.754 655.238C208.756 649.749 206.813 644.283 205.514 640.159C202.872 631.801 201.071 619.249 206.389 611.647C209.771 606.814 212.664 597.57 212.302 591.888C216.699 587.836 219.33 580.47 222.909 575.667C227.595 569.414 236.174 564.683 244.117 562.093C256.511 558.061 272.282 559.246 288.661 558.698C301.252 558.283 314.365 558.447 326.768 556.269C336.462 554.563 345.507 557.565 355.269 556.443C361.838 555.674 365.136 553.485 369.689 550.405C386.924 538.744 388.559 513.978 365.024 506.658ZM244.839 215.979C244.332 215.894 243.93 215.515 243.649 215.073C242.951 213.927 242.672 212.54 242.512 211.196C242.834 210.662 243.192 210.151 243.133 209.282C243.836 210.362 244.826 211.203 245.864 211.958C245.565 213.335 245.23 214.677 244.839 215.979ZM242.516 208.118C242.616 208.358 242.728 208.593 242.861 208.826C242.745 208.783 242.614 208.756 242.472 208.735C242.48 208.532 242.499 208.328 242.516 208.118ZM225.449 232.117C225.459 232.069 225.476 232.028 225.484 231.98C225.688 232.219 225.883 232.459 226.133 232.664C225.89 232.319 225.732 231.956 225.584 231.594C226.121 229.198 226.984 227.177 227.903 225.271C228.223 226.286 228.652 227.273 229.357 228.125C230.463 229.471 232.162 230.298 233.876 230.547C232.219 230.035 230.833 229.02 230.108 227.708C229.357 226.399 229.159 224.907 229.203 223.45C229.224 223.071 229.282 222.694 229.334 222.318C230.185 220.497 230.91 218.606 231.283 216.417C231.324 216.389 231.364 216.36 231.407 216.336C230.727 218.82 230.476 221.357 230.827 223.892C231.083 225.506 231.626 227.142 232.739 228.477C233.835 229.821 235.538 230.649 237.252 230.901C235.592 230.39 234.209 229.373 233.481 228.061C232.738 226.752 232.539 225.262 232.58 223.805C232.582 223.711 232.593 223.618 232.603 223.522C232.867 224.509 233.365 225.461 234.147 226.197C235.08 227.109 236.386 227.569 237.649 227.722C235.049 227.12 233.602 224.933 233.754 222.806C233.779 221.083 234.367 219.371 235.232 217.837C235.274 218.641 235.382 219.443 235.573 220.244C235.856 221.274 236.305 222.35 237.26 223.091C238.219 223.853 239.548 223.895 240.629 223.666C239.5 223.735 238.317 223.476 237.664 222.731C237 222.006 236.784 221.035 236.711 220.092C236.669 219.312 236.719 218.525 236.838 217.744C236.952 217.811 237.092 217.874 237.266 217.924C238.061 217.584 237.308 216.252 238.059 215.746C238.194 216.382 238.408 217.003 238.701 217.6C238.864 217.953 239.09 218.29 239.369 218.589C239.704 219.564 240.224 220.468 241.027 221.191C240.538 220.564 240.234 219.887 240.055 219.185C240.794 219.695 241.705 219.963 242.611 219.78C241.382 219.811 240.442 219.179 239.893 218.34C239.822 217.735 239.818 217.121 239.858 216.519C240.347 215.592 240.087 214.008 240.717 213.207C240.696 212.851 240.661 212.525 240.623 212.218C240.704 211.895 240.783 211.568 240.858 211.244C240.875 211.294 240.887 211.346 240.906 211.399C241.368 212.827 241.906 214.256 242.988 215.487C243.364 215.936 244.019 216.376 244.712 216.424C244.65 216.622 244.606 216.838 244.539 217.033C243.901 218.942 242.691 220.808 241.996 222.69C240.424 226.918 239.128 230.782 237.751 234.759C237.004 236.926 235.892 239.076 235.629 241.169C234.762 248.137 233.645 265.558 225.877 250.596C225.401 249.686 224.864 249.154 224.6 248.335C223.105 243.656 224.569 236.591 225.449 232.117ZM246.241 210.246C246.124 210.802 245.993 211.357 245.875 211.913C244.82 210.978 244.161 209.946 243.793 208.841C244.148 209.109 244.546 209.332 244.999 209.48C245.453 209.623 245.9 209.656 246.343 209.65C246.307 209.844 246.28 210.05 246.241 210.246ZM246.416 209.256C246.01 209.207 245.619 209.122 245.272 208.94C244.45 208.524 243.947 207.796 243.624 206.992C243.841 205.642 243.614 204.272 243.395 202.911C243.458 201.741 243.527 200.55 243.466 199.356C243.604 198.637 243.77 197.925 243.967 197.239L243.194 197.125C243.129 196.818 243.048 196.509 242.955 196.2C243.102 196.293 243.25 196.385 243.4 196.466C243.385 196.47 243.377 196.466 243.368 196.47C243.007 196.979 243.974 197.13 244.146 196.847C244.269 196.905 244.396 196.958 244.525 197.008C245.598 197.716 246.777 198.269 247.996 198.702C247.561 202.287 247.075 205.84 246.416 209.256ZM248.102 197.847C247.919 197.742 247.726 197.652 247.549 197.537C247.749 197.522 247.952 197.47 248.152 197.435C248.133 197.57 248.115 197.709 248.102 197.847ZM244.153 193.054C245.386 194.028 246.912 194.693 248.491 194.618C248.381 195.529 248.271 196.446 248.16 197.358C247.859 197.367 247.553 197.385 247.268 197.348C245.912 196.439 244.754 195.304 243.816 194.074C243.011 193.035 242.308 191.937 241.703 190.798C242.672 191.415 243.134 192.482 244.153 193.054ZM198.003 151.143C197.467 151.413 196.706 151.489 195.838 151.466C196.537 151.315 197.257 151.206 198.003 151.143ZM166.87 225.243C166.881 225.312 166.889 225.384 166.897 225.452C166.627 227.227 165.695 228.834 164.483 230.326C163.464 227.776 162.378 225.291 161.359 222.954C162.32 221.409 163.17 219.8 163.813 218.101C165.015 220.893 166.685 222.977 166.87 225.243ZM164.666 230.784C165.317 230.135 165.937 229.458 166.444 228.719C166.099 229.669 165.573 230.614 164.978 231.546C164.876 231.291 164.768 231.041 164.666 230.784ZM159.77 192.806C159.791 192.785 159.812 192.763 159.824 192.739C160.094 192.379 160.363 192.013 160.623 191.643C160.175 194.653 159.142 197.639 157.426 200.364C158.992 198.63 160.282 196.685 161.276 194.605C161.286 194.599 161.299 194.594 161.309 194.588C161.043 196.339 160.816 198.082 160.548 199.842C160.494 199.977 160.429 200.112 160.363 200.24C160.39 200.347 160.425 200.447 160.454 200.55C160.271 202.126 160.404 203.655 160.637 205.137C160.652 205.487 160.66 205.827 160.627 206.136C160.712 206.249 160.793 206.372 160.878 206.491C161.051 207.389 161.238 208.269 161.386 209.133C161.773 210.643 161.814 212.157 161.596 213.647C161.502 213.827 161.448 214.043 161.421 214.28C160.891 215.563 160.175 216.792 159.368 217.987C157.569 213.045 156.334 207.678 155.45 202.704C155.192 201.24 154.974 199.763 154.764 198.278C156.559 196.576 158.266 194.769 159.77 192.806ZM159.961 219.621C160.146 219.349 160.373 219.101 160.548 218.824C161.178 218.589 161.376 217.831 161.69 217.45C162.135 216.905 162.372 216.251 162.858 215.831C162.634 218.134 162.085 220.429 161.232 222.657C160.845 221.773 160.458 220.882 160.115 220.052C160.059 219.911 160.017 219.76 159.961 219.621ZM182.6 248.335C182.143 250.352 179.453 256.926 176.242 257.764C176.673 256.124 168.94 254.046 168.179 253.613C167.18 250.241 168.339 245.184 167.748 240.79C167.657 240.041 167.145 239.327 166.91 238.527C166.635 237.628 166.731 236.734 166.482 235.889C166.161 234.827 165.772 233.761 165.381 232.696C166.203 231.993 167.006 231.263 167.696 230.435C169.61 230.59 171.477 230.383 173.622 230.18C174.304 229.29 175.211 228.604 176.808 228.53C177.594 228.752 177.374 229.874 178.601 229.704C179.243 230.62 179.882 231.535 180.479 232.492C181.273 237.303 183.765 243.254 182.6 248.335ZM281.454 522.874C278.904 524.15 275.901 525.562 272.962 526.648C268.807 528.18 264.246 529.108 259.814 530.415C251.282 532.932 242.503 535.886 233.932 537.962C231.921 537.58 230.101 536.995 227.994 536.45C226.15 535.973 223.974 535.596 222.059 534.941C218.404 533.699 215.023 531.551 211.449 531.17C208.203 530.826 204.738 531.541 201.695 533.055C202.962 515.459 197.646 503.719 195.755 488.934C195.339 488.926 195.424 488.473 195.327 488.181C196.722 487.406 199.628 487.976 201.695 487.804C202.687 487.989 203.076 488.828 203.812 489.311C213.642 495.717 223.346 502.972 236.087 504.44C244.878 505.453 250.496 502.868 258.541 507.409C261.218 508.936 263.836 510.703 266.604 512.316C269.281 513.878 271.823 515.789 274.66 517.215C277.615 518.709 280.677 519.737 283.996 520.992C283.647 522.042 282.351 522.421 281.454 522.874Z" fill="#F2F2F2"/>
<path d="M201.5 191L201.983 450" stroke="#B8A141"/>
<circle cx="202" cy="419" r="5" fill="#FC9E20"/>
<circle cx="202" cy="369" r="5" fill="#FAD805"/>
<circle cx="202" cy="301" r="5" fill="#38A724"/>
<circle cx="202" cy="224" r="5" fill="#1892A9"/>
<circle cx="202" cy="191" r="5" fill="#335DD6"/>
<circle cx="202" cy="450" r="5" fill="#FF043D"/>
</svg>
